<?xml version="1.0" standalone="no"?><!DOCTYPE svg PUBLIC "-//W3C//DTD SVG 1.1//EN" "http://www.w3.org/Graphics/SVG/1.1/DTD/svg11.dtd"><svg class="icon" width="32px" height="32.00px" viewBox="0 0 1024 1024" version="1.1" xmlns="http://www.w3.org/2000/svg"><path d="M395 619.1c0.3 18.5 10.1 35 26.2 44.1 7.9 4.5 16.8 6.9 25.7 6.9 8.9 0 17.7-2.4 25.6-6.8l187.7-106.4c16.5-9.4 26.4-26.3 26.3-45.3-0.1-19-10-35.9-26.6-45.1L468.5 360c-16.4-9.1-35.7-8.7-51.8 0.9-16.1 9.6-25.5 26.6-25.2 45.2l3.5 213z m46.5-216.5c0.7-0.4 1.4-0.6 1.9-0.6 0.7 0 1.3 0.3 1.5 0.4l191.2 106.4c0.5 0.3 1.7 0.9 1.7 2.9s-1.2 2.6-1.7 2.9L448.4 621.1c-0.8 0.4-1.7 0.8-3 0l-0.2-0.1c-1.4-0.8-1.6-1.9-1.6-2.8L440 405.5c0-0.6 0-1.9 1.5-2.9z" fill="#dc3545" /><path d="M649.6 112.5c-91.3-31.1-191.4-30-281.8 3.1-87.5 32-163.2 93.2-213.3 172.2-49.9 78.8-72.4 173.5-63.6 266.7 7.6 79.8 37.7 155.6 87.1 219.2 48.8 62.8 113.8 110.6 188 138.1 46.1 17.1 97.1 26.1 147.4 26.1 32.6 0 64.8-3.7 95.9-10.9 77.5-18.1 148.2-57.7 204.6-114.6 56.2-56.7 95.1-127.5 112.6-204.8 4.3-18.9 7.3-38.4 8.9-57.8 7.9-94.7-16.5-190.3-68.7-269.2-51.7-78.4-128.8-138-217.1-168.1z m-136.7 26c42.6 0 84.3 7 123.8 20.8 65.8 23 124 63.9 168.1 118.3 44.7 55.2 72.7 121.4 81.1 191.7 2.1 17.7 2.9 36 2.5 54.5-2 78.1-29.3 155.3-76.8 217.4-51 66.7-123.2 115-203.1 135.9C541 894.8 467.3 893 401 872.2c-75-23.5-142.2-71.5-189.3-135.2-26.3-35.5-45.9-74.2-58.1-114.9-8.5-28.4-13.5-59.6-15.5-98.1-4.2-78.9 22-163.4 72-231.7 48.6-66.5 118.8-115.8 197.4-138.8 33.8-9.9 69.4-15 105.4-15z" fill="#dc3545" /></svg>