<?xml version="1.0" standalone="no"?><!DOCTYPE svg PUBLIC "-//W3C//DTD SVG 1.1//EN" "http://www.w3.org/Graphics/SVG/1.1/DTD/svg11.dtd"><svg class="icon" width="16px" height="16.00px" viewBox="0 0 1024 1024" version="1.1" xmlns="http://www.w3.org/2000/svg"><path d="M44.8 320c-24.96 0-44.8 19.84-44.8 44.8v603.52c0 24.96 19.84 44.8 44.8 44.8s44.8-19.84 44.8-44.8V364.8c0-24.96-19.84-44.8-44.8-44.8zM356.48 12.8c-24.96 0-44.8 19.84-44.8 44.8v910.72c0 24.96 19.84 44.8 44.8 44.8s44.8-19.84 44.8-44.8V57.6c0-24.96-20.48-44.8-44.8-44.8zM667.52 486.4c-24.96 0-44.8 19.84-44.8 44.8v437.12c0 24.96 19.84 44.8 44.8 44.8s44.8-19.84 44.8-44.8V531.2c0-24.96-19.84-44.8-44.8-44.8zM979.2 170.88c-24.96 0-44.8 19.84-44.8 44.8v752.64c0 24.96 19.84 44.8 44.8 44.8s44.8-19.84 44.8-44.8V215.68c0-24.96-19.84-44.8-44.8-44.8z" fill="#ffffff" /></svg>