<?xml version="1.0" standalone="no"?><!DOCTYPE svg PUBLIC "-//W3C//DTD SVG 1.1//EN" "http://www.w3.org/Graphics/SVG/1.1/DTD/svg11.dtd"><svg class="icon" width="16px" height="16.00px" viewBox="0 0 1024 1024" version="1.1" xmlns="http://www.w3.org/2000/svg"><path d="M 905.6 345.631 c -37.44 -9.79125 -125.472 -9.6 -254.304 -13.0556 c 6.14437 -28.1278 7.48875 -53.4712 7.48875 -98.4 C 658.88 126.656 580.544 32 511.231 32 c -48.9591 0 -89.2791 40.0313 -89.8556 89.1844 c -0.67125 60.2878 -19.2 164.447 -119.808 217.343 c -7.39219 3.84 -28.4156 14.2078 -31.4878 15.6478 l 1.53562 1.34438 a 95.04 95.04 0 0 0 -59.9034 -24 H 121.856 A 89.9522 89.9522 0 0 0 32 421.376 V 900.8 c 0 49.5356 40.32 89.8556 89.8556 89.8556 h 89.8566 a 88.8 88.8 0 0 0 79.9678 -51.7434 l 1.34438 0.384375 l 7.2 1.91906 c 0.48 0 0.767812 0.0965625 1.34344 0.28875 c 17.28 4.32 50.4966 12.1912 121.44 28.5112 c 15.36 3.45656 95.6156 20.64 178.944 20.64 h 163.776 c 49.92 0 86.88 -18.6234 107.232 -57.7912 c 19.9688 -34.7531 117.696 -221.28 117.6 -484.224 c 0 -37.8244 -26.2078 -86.1122 -84.96 -102.912 Z M 241.664 900.8 c 0 16.5122 -13.44 29.9522 -29.9531 29.9522 H 121.857 a 29.9522 29.9522 0 0 1 -29.9513 -29.9522 V 421.376 c 0 -16.5112 13.44 -29.9513 29.9513 -29.9513 h 89.8566 c 16.6078 0 29.9522 13.44 29.9522 29.9513 V 900.8 Z M 929.984 467.456 c -12.48 300.96 -109.824 437.184 -109.824 437.184 c -9.12 16.32 -23.6156 26.1122 -54.5278 26.1122 H 601.952 c -82.2722 0 -163.872 -18.6244 -165.984 -19.2 c -124.416 -28.6078 -130.943 -30.8156 -138.72 -33.0244 l 4.32 -440.16 c 0 -45.5034 0.96 -33.9844 0 -33.4078 C 438.464 348.32 480.128 224 481.28 121.952 A 30.0478 30.0478 0 0 1 511.232 92 c 31.68 0 87.6478 63.5522 87.6478 142.272 c 0 71.04 -2.88 83.2312 -27.7444 157.248 c 299.52 0 297.504 4.32 323.904 11.2312 c 32.8312 9.40875 35.52 36.4809 35.52 45.8887 c 0 10.2722 -0.192188 8.83125 -0.575625 18.8156 Z" fill="#2c2c2c" /></svg>