<?xml version="1.0" standalone="no"?><!DOCTYPE svg PUBLIC "-//W3C//DTD SVG 1.1//EN" "http://www.w3.org/Graphics/SVG/1.1/DTD/svg11.dtd"><svg class="icon" width="16px" height="16.00px" viewBox="0 0 1024 1024" version="1.1" xmlns="http://www.w3.org/2000/svg"><path d="M812.828 170.667H711.282a28.444 28.444 0 1 1 0-56.89h170.496a28.444 28.444 0 0 1 28.444 28.445v170.61a28.444 28.444 0 0 1-56.889 0v-102.23l-331.377 330.81a28.444 28.444 0 1 1-40.192-40.25l331.064-330.495zM500.907 71.11A28.444 28.444 0 0 1 502.329 128C294.343 133.177 128 303.502 128 512c0 212.11 171.975 384.085 384.114 384.085 207.474 0 377.287-164.778 383.914-371.57a28.444 28.444 0 1 1 56.832 1.821c-7.594 237.483-202.552 426.638-440.746 426.638-243.598 0-441.003-197.433-441.003-441.002 0-239.389 190.976-434.888 429.796-440.86z" /></svg>