<?xml version="1.0" standalone="no"?><!DOCTYPE svg PUBLIC "-//W3C//DTD SVG 1.1//EN" "http://www.w3.org/Graphics/SVG/1.1/DTD/svg11.dtd"><svg class="icon" width="16px" height="16.00px" viewBox="0 0 1024 1024" version="1.1" xmlns="http://www.w3.org/2000/svg"><path d="M512 60.8C238.4 60.8 16 256 16 494.72A405.12 405.12 0 0 0 158.08 800l36.48 157.76a32 32 0 0 0 15.04 20.16 30.08 30.08 0 0 0 16.32 4.48 39.68 39.68 0 0 0 8.64 0l199.68-56.96A557.12 557.12 0 0 0 512 928c273.6 0 496-194.88 496-434.24S785.6 60.8 512 60.8zM512 864a488 488 0 0 1-75.2-6.08 32 32 0 0 0-13.44 0l-174.08 51.2-32-134.72a32 32 0 0 0-10.56-17.28 343.36 343.36 0 0 1-128-262.4C80 290.56 273.92 124.8 512 124.8s432 165.76 432 369.92S750.08 864 512 864z"  /><path d="M292.48 497.6m-48 0a48 48 0 1 0 96 0 48 48 0 1 0-96 0Z"  /><path d="M512 497.6m-48 0a48 48 0 1 0 96 0 48 48 0 1 0-96 0Z"  /><path d="M731.52 497.6m-48 0a48 48 0 1 0 96 0 48 48 0 1 0-96 0Z"  /></svg>