<?xml version="1.0" standalone="no"?><!DOCTYPE svg PUBLIC "-//W3C//DTD SVG 1.1//EN" "http://www.w3.org/Graphics/SVG/1.1/DTD/svg11.dtd"><svg class="icon" width="16px" height="16.00px" viewBox="0 0 1024 1024" version="1.1" xmlns="http://www.w3.org/2000/svg"><path d="M500.5 74.7c59.6 41 109.8 96.4 146.1 160.6l4.6-11 1.4-2.7c4.8-19.2 23.4-36.4 45-40.8 22.4-4.5 44.4 0.4 57.8 13.8 92 92 140.9 212.5 140.9 346 0 236.2-145.9 419.4-383.7 419.4-125.9 0-242.8-61.2-315.1-165.7-85.1-125.6-92.4-290.9-20.5-470.5 8.6-21.5 25.9-35.3 48.7-39.9 22.3-4.5 44.8 4.3 58.1 22l49.8 56.9c31.1-45.7 56.5-124.2 69.2-244.2 4.5-22.7 13.7-37.8 30.6-46.3l9.7-4.3c18.4-7 41.9-4.9 57.4 6.7z m-30.1 64.9c-20.2 163.7-63.1 256.6-115.7 302.6-13.5 13.5-36.2 11.5-47.4-1.3l-2.2-2.9-67.7-74.9-4.7 13.5c-50 148.3-42.1 279.1 23.6 374.1 59 82.6 152.6 132 252.3 132 193 0 309.9-151.2 314.5-354.1 0-107.6-37.7-205.4-109.6-281.1-12.2 30.3-27.2 58.5-45.3 83.7-9.6 9.6-19.3 13.9-32.6 13.9-14.6 0-25.3-9.3-30.3-24.4-27.5-78.2-72.6-140-134.9-181.1z" /></svg>