<?xml version="1.0" standalone="no"?><!DOCTYPE svg PUBLIC "-//W3C//DTD SVG 1.1//EN" "http://www.w3.org/Graphics/SVG/1.1/DTD/svg11.dtd"><svg class="icon" width="16px" height="16.00px" viewBox="0 0 1024 1024" version="1.1" xmlns="http://www.w3.org/2000/svg"><path d="M510.465552 954.327174c-245.497297 0-444.473047-199.025892-444.473047-444.471001 0-245.447155 198.97575-444.472024 444.473047-444.472024 245.49525 0 444.469977 198.974727 444.469977 444.472024C954.93553 755.301282 755.960803 954.327174 510.465552 954.327174L510.465552 954.327174zM510.465552 114.76993c-218.187301 0-395.087267 176.899966-395.087267 395.086244 0 218.186278 176.899966 395.086244 395.087267 395.086244 218.185254 0 395.08522-176.899966 395.08522-395.086244C905.550773 291.669896 728.650807 114.76993 510.465552 114.76993L510.465552 114.76993zM708.007651 559.242977 461.078749 559.242977 461.078749 213.540468l49.386804 0 0 296.315706 197.542098 0L708.007651 559.242977 708.007651 559.242977z" /></svg>