<?xml version="1.0" standalone="no"?><!DOCTYPE svg PUBLIC "-//W3C//DTD SVG 1.1//EN" "http://www.w3.org/Graphics/SVG/1.1/DTD/svg11.dtd"><svg class="icon" width="16px" height="16.00px" viewBox="0 0 1024 1024" version="1.1" xmlns="http://www.w3.org/2000/svg"><path d="M119.466667 512H51.2C51.2 267.946667 250.88 68.266667 494.933333 68.266667c175.786667 0 334.506667 104.106667 406.186667 262.826666L837.973333 358.4C778.24 223.573333 643.413333 136.533333 494.933333 136.533333 288.426667 136.533333 119.466667 305.493333 119.466667 512z" fill="#da231b" /><path d="M938.666667 409.6H699.733333v-68.266667h170.666667V170.666667h68.266667z" fill="#da231b" /><path d="M494.933333 955.733333C319.146667 955.733333 160.426667 851.626667 88.746667 692.906667L151.893333 665.6c59.733333 134.826667 194.56 221.866667 343.04 221.866667 206.506667 0 375.466667-168.96 375.466667-375.466667h68.266667c0 244.053333-199.68 443.733333-443.733334 443.733333z" fill="#da231b" /><path d="M119.466667 853.333333H51.2V614.4h238.933333v68.266667H119.466667z" fill="#da231b" /></svg>