<?xml version="1.0" standalone="no"?><!DOCTYPE svg PUBLIC "-//W3C//DTD SVG 1.1//EN" "http://www.w3.org/Graphics/SVG/1.1/DTD/svg11.dtd"><svg class="icon" width="32px" height="31.97px" viewBox="0 0 1025 1024" version="1.1" xmlns="http://www.w3.org/2000/svg"><path d="M276.641621 86.131683l0 161.989371 747.667417 0 0-161.989371L276.641621 86.131683zM276.641621 592.607876l747.667417 0L1024.309038 430.604178 276.641621 430.604178 276.641621 592.607876zM276.641621 938.931532l747.667417 0 0-161.989371L276.641621 776.942161 276.641621 938.931532zM82.866313 86.131683c-45.292556 0-81.996502 36.201503-81.996502 80.856539 0 44.644803 36.703947 80.859609 81.996502 80.859609 45.295626 0 82.013899-36.214806 82.013899-80.859609C164.880211 122.333186 128.161938 86.131683 82.866313 86.131683zM82.866313 430.18053c-45.292556 0-81.996502 36.20355-81.996502 80.859609 0 44.641733 36.703947 80.845283 81.996502 80.845283 45.295626 0 82.013899-36.20355 82.013899-80.845283C164.880211 466.385103 128.161938 430.18053 82.866313 430.18053zM82.866313 775.751033c-45.292556 0-81.996502 36.201503-81.996502 80.859609 0 44.641733 36.703947 80.842213 81.996502 80.842213 45.295626 0 82.013899-36.201503 82.013899-80.842213C164.880211 811.952536 128.161938 775.751033 82.866313 775.751033z" fill="#2c2c2c" /></svg>