<?xml version="1.0" standalone="no"?><!DOCTYPE svg PUBLIC "-//W3C//DTD SVG 1.1//EN" "http://www.w3.org/Graphics/SVG/1.1/DTD/svg11.dtd"><svg class="icon" width="32px" height="31.97px" viewBox="0 0 1025 1024" version="1.1" xmlns="http://www.w3.org/2000/svg"><path d="M859.456 370.304c-17.472-9.792-39.872-3.968-49.92 13.12l-78.08 157.696-78.08-157.696c-10.048-17.088-32.448-22.848-49.984-13.12C585.92 380.224 580.032 401.92 590.08 418.944l107.712 217.6C698.24 637.76 698.88 638.848 699.52 640l0.256 0.64c0.064 0.192 0.192 0.32 0.32 0.512 0.256 0.448 0.576 0.832 0.896 1.28 0.384 0.64 0.768 1.216 1.28 1.728 0.192 0.32 0.448 0.576 0.64 0.896 0.64 0.64 1.152 1.344 1.728 1.92 0.128 0.128 0.256 0.256 0.384 0.384 0.704 0.768 1.408 1.408 2.176 2.112l0 0c2.816 2.368 5.952 4.288 9.216 5.824 0.192 0.064 0.32 0.128 0.512 0.192 0.96 0.384 1.792 0.768 2.688 1.088 0.384 0.128 0.768 0.192 1.152 0.32 0.768 0.192 1.472 0.384 2.24 0.576 0.512 0.128 0.96 0.192 1.344 0.32 0.704 0.128 1.344 0.256 1.92 0.32 0.576 0.128 1.152 0.128 1.664 0.192 0.64 0.064 1.216 0.128 1.792 0.192 0.64 0 1.216 0 1.728 0 0.64 0 1.28 0 1.728 0 0.576-0.064 1.216-0.128 1.792-0.192 0.576-0.064 1.152-0.064 1.664-0.192 0.704-0.064 1.344-0.192 1.92-0.32 0.512-0.128 1.024-0.192 1.472-0.32 0.768-0.192 1.344-0.384 2.112-0.576 0.384-0.064 0.768-0.192 1.152-0.32 0.896-0.32 1.728-0.64 2.624-1.024 0.192-0.064 0.448-0.192 0.64-0.256 1.088-0.512 2.048-1.024 3.008-1.536 0 0 0.128 0 0.128-0.064l0 0c1.024-0.576 2.048-1.28 3.008-1.856 0.064-0.064 0.128-0.128 0.192-0.128 0.832-0.64 1.664-1.28 2.432-1.792 0.128-0.192 0.384-0.32 0.512-0.448 0.64-0.576 1.152-1.024 1.728-1.536 0.192-0.384 0.576-0.704 0.96-1.024 0.32-0.384 0.64-0.768 1.024-1.152 0.448-0.64 0.96-1.216 1.344-1.792 0.128-0.192 0.32-0.448 0.448-0.704 0.576-0.768 1.152-1.536 1.6-2.432 0 0 0.064-0.064 0.064-0.128l0.128-0.192c0.832-1.344 1.6-2.944 2.24-4.48l107.392-216.96C882.944 401.92 876.928 380.224 859.456 370.304zM950.848 73.152 73.152 73.152C32.704 73.152 0 105.92 0 146.24l0 731.456c0 40.448 32.704 73.216 73.152 73.216l877.76 0c40.384 0 73.152-32.768 73.152-73.216L1024.064 146.24C1024 105.92 991.232 73.152 950.848 73.152zM950.848 841.152c0 20.224-16.384 36.544-36.48 36.544L109.696 877.696c-20.224 0-36.608-16.32-36.608-36.544L73.088 182.848c0-20.16 16.32-36.608 36.608-36.608l804.672 0c20.096 0 36.48 16.448 36.48 36.608L950.848 841.152zM475.776 365.696c-0.128 0-0.256 0-0.32 0-13.312 0-24.896 7.168-31.296 17.728L329.152 498.112 214.144 383.424c-6.4-10.624-17.984-17.728-31.296-17.728-0.128 0-0.256 0-0.384 0C173.12 365.568 163.712 369.088 156.48 376.192c-8.128 8.128-11.52 19.072-10.24 29.568l0 216c0 20.16 16.384 36.48 36.608 36.48 20.16 0 36.544-16.32 36.544-36.48L219.392 489.216 296.32 565.888c1.664 3.136 3.84 6.144 6.464 8.704 7.232 7.296 16.896 10.752 26.368 10.496 9.408 0.256 19.072-3.2 26.304-10.496 2.688-2.624 4.736-5.568 6.4-8.64l76.992-76.736 0 132.544c0 20.16 16.32 36.48 36.544 36.48S512 641.92 512 621.76L512 405.76c1.28-10.496-2.112-21.44-10.24-29.568C494.656 369.088 485.184 365.568 475.776 365.696z" fill="#da231b" /></svg>