<?xml version="1.0" standalone="no"?><!DOCTYPE svg PUBLIC "-//W3C//DTD SVG 1.1//EN" "http://www.w3.org/Graphics/SVG/1.1/DTD/svg11.dtd"><svg class="icon" width="32px" height="32.00px" viewBox="0 0 1024 1024" version="1.1" xmlns="http://www.w3.org/2000/svg"><path d="M512 0C228.707265 0 0 228.707265 0 512s229.574531 512 512 512 512-229.574531 512-512C1024 228.707265 795.292735 0 512 0z m0 977.449796C254.746122 977.449796 46.550204 769.253878 46.550204 512S254.746122 46.550204 512 46.550204 977.449796 254.746122 977.449796 512 769.253878 977.449796 512 977.449796z m195.79298-500.965878L443.559184 324.001959c-26.853878-15.589878-61.502694 4.336327-61.502694 35.526531v305.810286c0 31.190204 33.781551 51.116408 61.502694 35.52653l264.233796-152.481959c26.853878-16.457143 26.853878-56.309551 0-71.899429z" fill="#2c2c2c" /></svg>