<?xml version="1.0" standalone="no"?><!DOCTYPE svg PUBLIC "-//W3C//DTD SVG 1.1//EN" "http://www.w3.org/Graphics/SVG/1.1/DTD/svg11.dtd"><svg class="icon" width="32px" height="32.00px" viewBox="0 0 1024 1024" version="1.1" xmlns="http://www.w3.org/2000/svg"><path d="M919.5776 243.584H102.6816a102.4 102.4 0 0 0-102.4 102.4v332.3904a102.4 102.4 0 0 0 102.4 102.4h816.896c56.5504 0 104.1408-45.824 104.1408-102.3744V345.984c0-56.5504-47.5904-102.4-104.1408-102.4zM236.288 675.072c-12.8256 0-23.9616-12.1856-33.3568-36.5312L77.0816 345.6h102.4l73.7536 202.0608 108.5696-202.0608h99.2768l-182.4768 293.4016c-15.3856 24.0384-29.4656 36.0704-42.3168 36.0704z m173.5936 3.328l76.8-332.8h76.8l-76.8 332.8h-76.8z m519.2448-209.2032c-5.0432 36.3008-21.6064 65.664-49.5616 88.2432-26.8288 21.376-76.16 18.56-111.3088 18.56h-128l-25.6 102.4h-76.8l51.2-179.2h204.8c10.9056 0 32.4608 4.0192 40.9088-2.9184 8.3968-6.912 13.4144-16.1024 15.0272-27.52 1.5872-11.392-0.8704-20.4288-7.424-27.0592-6.5024-6.6048-12.0576-19.3024-22.912-19.3024h-230.4l76.8-76.8h153.6c34.9696 0 63.9488 14.0032 84.8128 35.4048 21.632 22.6048 29.952 51.968 24.8576 88.192z" fill="#da231b" /></svg>