<?xml version="1.0" standalone="no"?><!DOCTYPE svg PUBLIC "-//W3C//DTD SVG 1.1//EN" "http://www.w3.org/Graphics/SVG/1.1/DTD/svg11.dtd"><svg class="icon" width="32px" height="32.00px" viewBox="0 0 1024 1024" version="1.1" xmlns="http://www.w3.org/2000/svg"><path d="M845.1 290H178.9c-58.6 0-83.3 27.6-83.3 83.2v277.7c0 55.6 24.7 83.2 83.3 83.2H845c58.6 0 83.3-27.7 83.3-83.3V373.2c0.4-55.6-24.7-83.2-83.2-83.2z" fill="#3f434e" /><path d="M325.2 616c-8.5 0-16.2-7.7-22.7-23.5l-75.1-184.3h58.1l52.4 126.6L422 408.2h58L354.1 592.9c-11 15.4-20.8 23.1-28.9 23.1z m138.1-3.1l30.5-204.8h54l-30.9 204.8h-53.6z m331.9-128.2c-3.2 21.9-15.4 41.6-33.7 55-17.9 13.5-40.2 20.8-63 20.8h-90.6l-7.7 51.6h-53.6l15.8-104.3h149.5c6.9 0 13.8-2.3 19.5-6.5 5.3-3.8 8.9-9.6 10.2-16.2 1.6-6.2-0.4-12.7-4.9-17.3-4.9-4.2-11-6.5-17.9-6.2H570.2l43.1-53.5h108.9c21.5-1.2 42.6 6.2 58.1 20.4 13.7 15.4 19.3 36.2 14.9 56.2z m0 0" fill="#ffd791" /></svg>