<?xml version="1.0" standalone="no"?><!DOCTYPE svg PUBLIC "-//W3C//DTD SVG 1.1//EN" "http://www.w3.org/Graphics/SVG/1.1/DTD/svg11.dtd"><svg class="icon" width="32px" height="32.00px" viewBox="0 0 1024 1024" version="1.1" xmlns="http://www.w3.org/2000/svg"><path d="M512 0C230.4 0 0 230.4 0 512s230.4 512 512 512 512-230.4 512-512S793.6 0 512 0z m339 851c-91 90.9-211.4 141-339 141s-248-50.1-339-141C82.1 760 32 639.6 32 512s50.1-248 141-339S384.4 32 512 32s248 50.1 339 141c90.9 90.9 141 211.3 141 339 0 127.6-50.1 248-141 339z"  /><path d="M384 307.2c-17.7 0-32 14.3-32 32v345.6c0 17.7 14.3 32 32 32s32-14.3 32-32V339.2c0-17.7-14.3-32-32-32zM640 307.2c-17.7 0-32 14.3-32 32v345.6c0 17.7 14.3 32 32 32s32-14.3 32-32V339.2c0-17.7-14.3-32-32-32z"  /></svg>