<?xml version="1.0" standalone="no"?><!DOCTYPE svg PUBLIC "-//W3C//DTD SVG 1.1//EN" "http://www.w3.org/Graphics/SVG/1.1/DTD/svg11.dtd"><svg class="icon" width="32px" height="32.00px" viewBox="0 0 1024 1024" version="1.1" xmlns="http://www.w3.org/2000/svg"><path d="M512.697 63.444c-247.54 0-448.208 200.668-448.208 448.208 0 247.54 200.669 448.208 448.208 448.208 247.54 0 448.208-200.668 448.208-448.208 0-247.54-200.668-448.208-448.208-448.208z m269.954 322.88l-310.14 316.86c-1.058 1.586-2.235 3.1-3.621 4.505a30.795 30.795 0 0 1-44.026 0L270.81 551.265c-12.146-12.347-12.146-32.355 0-44.683a30.783 30.783 0 0 1 44.017 0l131.584 133.591 292.213-298.55a30.795 30.795 0 0 1 44.026 0c12.146 12.347 12.146 32.353 0 44.702z" fill="#de4d4d" /></svg>