<?xml version="1.0" standalone="no"?><!DOCTYPE svg PUBLIC "-//W3C//DTD SVG 1.1//EN" "http://www.w3.org/Graphics/SVG/1.1/DTD/svg11.dtd"><svg class="icon" width="32px" height="32.00px" viewBox="0 0 1024 1024" version="1.1" xmlns="http://www.w3.org/2000/svg"><path d="M925.156124 734.947556a483.555556 483.555556 0 1 0-833.024-11.377778 32.256 32.256 0 0 0 55.978667-32.085334 419.100444 419.100444 0 1 1 722.033778 9.841778 32.256 32.256 0 0 0 55.011555 33.564445z m-165.262222-114.744889a290.133333 290.133333 0 1 0-499.825778-6.826667 32.256 32.256 0 0 0 55.978667-32.085333 225.678222 225.678222 0 1 1 388.835556 5.290666 32.256 32.256 0 1 0 55.011555 33.564445z m-155.591111-96.881778l-9.955555 338.090667a32.426667 32.426667 0 0 1-0.910223 6.599111c0.568889 4.437333 0.853333 8.931556 0.853334 13.482666 0 72.248889-70.257778 127.260444-153.6 127.260445-83.285333 0-153.486222-55.011556-153.486223-127.260445s70.200889-127.203556 153.543112-127.203555c33.962667 0 65.763556 9.102222 91.534222 24.860444L540.473458 500.280889a32.256 32.256 0 0 1 17.408-27.704889 32.085333 32.085333 0 0 1 12.743111-6.257778c3.413333-0.853333 28.444444-9.272889 39.025778-12.231111 13.539556-3.697778 27.932444-6.769778 44.487111-9.216a32.256 32.256 0 1 1 9.386666 63.772445c-13.880889 2.048-25.713778 4.551111-36.750222 7.623111-4.209778 1.137778-13.596444 4.209778-22.471111 7.054222z" fill="#de4d4d" /></svg>