<?xml version="1.0" standalone="no"?><!DOCTYPE svg PUBLIC "-//W3C//DTD SVG 1.1//EN" "http://www.w3.org/Graphics/SVG/1.1/DTD/svg11.dtd"><svg class="icon" width="32px" height="32.00px" viewBox="0 0 1024 1024" version="1.1" xmlns="http://www.w3.org/2000/svg"><path d="M512 512m-512 0a512 512 0 1 0 1024 0 512 512 0 1 0-1024 0Z" fill="#e74c3c" /><path d="M293.021538 459.539692l0.07877-24.969846c4.923077-57.934769 42.771692-97.083077 85.070769-101.100308 7.010462-0.630154 13.548308-0.984615 19.613538-0.984615 39.739077 0 59.155692 11.421538 91.608616 48.836923l21.464615 24.812308 21.464616-24.812308c32.452923-37.415385 51.908923-48.836923 91.56923-48.836923 6.104615 0 12.603077 0.354462 19.613539 0.984615 42.338462 4.017231 80.187077 43.126154 85.228307 103.384616l-0.118153 25.009231c-6.025846 73.491692-72.034462 160.334769-217.757539 262.183384-145.723077-101.848615-211.731692-188.731077-217.796923-264.507077zM397.784615 275.692308c-7.916308 0-16.226462 0.393846-25.00923 1.260307-69.947077 6.616615-129.102769 67.741538-136.349539 155.254154L236.307692 461.824c8.073846 101.376 88.891077 204.878769 258.56 320.196923l15.990154 10.870154 15.950769-10.870154c169.747692-115.318154 250.564923-218.820923 258.520616-317.912615l0.078769-29.538462c-7.325538-89.836308-66.56-151.000615-136.507077-157.617231A265.176615 265.176615 0 0 0 623.891692 275.692308c-48.443077 0-79.793231 13.430154-113.033846 45.607384C477.617231 289.083077 446.267077 275.692308 397.784615 275.692308z" fill="#ffffff" /></svg>