<?xml version="1.0" standalone="no"?><!DOCTYPE svg PUBLIC "-//W3C//DTD SVG 1.1//EN" "http://www.w3.org/Graphics/SVG/1.1/DTD/svg11.dtd"><svg class="icon" width="32px" height="32.00px" viewBox="0 0 1024 1024" version="1.1" xmlns="http://www.w3.org/2000/svg"><path d="M786.309939 1003.349333c-11.093333 0-23.893333-3.754667-34.986666-9.216l-239.616-119.808L270.043273 994.133333c-23.893333 12.970667-55.296 11.093333-77.482667-5.461333s-34.986667-46.08-29.525333-73.728l49.834666-258.048L23.088606 479.914667C2.779273 459.605333-4.559394 428.202667 2.779273 402.432c9.216-27.648 31.402667-47.957333 60.757333-51.541333l263.68-47.957334L445.317939 63.146667c12.970667-25.770667 38.741333-42.325333 66.389334-42.325334S567.003273 37.376 578.096606 63.146667l117.930667 239.616 263.68 46.08c27.648 3.754667 51.541333 23.893333 59.050666 51.541333 9.216 27.648 1.877333 57.173333-18.432 77.482667L810.203273 656.896l47.957333 258.048c5.461333 29.525333-7.338667 57.173333-29.525333 73.728-10.922667 9.216-25.770667 14.677333-42.325334 14.677333z" fill="#de4d4d" /></svg>