<?xml version="1.0" standalone="no"?><!DOCTYPE svg PUBLIC "-//W3C//DTD SVG 1.1//EN" "http://www.w3.org/Graphics/SVG/1.1/DTD/svg11.dtd"><svg class="icon" width="32px" height="32.00px" viewBox="0 0 1024 1024" version="1.1" xmlns="http://www.w3.org/2000/svg"><path d="M509.86675497844936 1030.3541433685332c-285.50878597878517 0-516.9598013743407-231.49765760948148-516.9598013743407-517.0432654348641S224.3579689996643-3.7152038001777328 509.86675497844936-3.7152038001777328c285.5112404233481 0 516.9622558189036 231.4804739084642 516.9622558189036 517.0260817338469S795.3779954017974 1030.3541433685332 509.86675497844936 1030.3541433685332zM509.86675497844936 60.91060245744194c-249.82294849611847 0-452.3389053003852 202.54541402263706-452.3389053003852 452.40027547622714S260.04380518779266 965.7136091489975 509.86675497844936 965.7136091489975s452.3389053003852-202.54786846719998 452.3389053003852-452.4027312153284S759.689703474568 60.91060245744194 509.86675497844936 60.91060245744194zM703.7269861666764 545.631145043437L542.1796574599902 545.631145043437l0 161.57187833046913c0 17.836781335387652-14.466302073362964 32.30799359241482-32.310448036977775 32.30799359241482-17.844145963614814 0-32.30799359241482-14.47121225702716-32.30799359241482-32.30799359241482l0-161.57187833046913-161.55223889035062 0c-17.844145963614814 0-32.310448036977775-14.468756517925923-32.310448036977775-32.3202671097679 0-17.839235779950616 14.468756517925923-32.30799359241482 32.310448036977775-32.30799359241482l161.55223889035062 0 0-161.57924295869628c0-17.836781335387652 14.466302073362964-32.30062896418766 32.30799359241482-32.30062896418766 17.84660040817778 0 32.310448036977775 14.461391889698765 32.310448036977775 32.30062896418766l0 161.57924295869628 161.54733000122468 0c17.84660040817778 0 32.310448036977775 14.468756517925923 32.310448036977775 32.30799359241482C736.0374342036542 531.1623885255111 721.5735865748544 545.631145043437 703.7269861666764 545.631145043437z" fill="#999999" /></svg>