<?xml version="1.0" standalone="no"?><!DOCTYPE svg PUBLIC "-//W3C//DTD SVG 1.1//EN" "http://www.w3.org/Graphics/SVG/1.1/DTD/svg11.dtd"><svg class="icon" width="32px" height="32.00px" viewBox="0 0 1024 1024" version="1.1" xmlns="http://www.w3.org/2000/svg"><path d="M511.998 64.758c-247.005 0-447.241 200.236-447.241 447.242 0 247.005 200.236 447.242 447.241 447.242s447.243-200.236 447.243-447.242c0-247.007-200.239-447.242-447.243-447.242zM728.312 575.543l-192.001 156.399c-12.658 13.819-33.215 13.819-45.871 0l-193.793-156.409c-12.654-13.819-12.654-36.267 0-50.084 6.33-6.942 14.647-13.448 22.964-13.448 8.292 0 14.143 3.669 23.213 10.744l138.081 109.836v-315.462c0-19.593 14.529-35.423 32.472-35.423s32.468 15.83 32.468 35.423v317.508l133.070-113.692c17.203-14.311 34.667-12.397 47.35 1.455 12.656 13.818 14.703 39.337 2.046 53.156z" fill="#de4d4d" /></svg>