<?xml version="1.0" standalone="no"?><!DOCTYPE svg PUBLIC "-//W3C//DTD SVG 1.1//EN" "http://www.w3.org/Graphics/SVG/1.1/DTD/svg11.dtd"><svg class="icon" width="16px" height="16.00px" viewBox="0 0 1024 1024" version="1.1" xmlns="http://www.w3.org/2000/svg"><path d="M871.629853 867.019817 813.850813 815.896758C888.193007 740.146568 934.11928 637.823652 934.11928 524.902364 934.11928 418.739458 893.466592 321.971726 826.829977 247.783132L884.583417 196.685673C963.277599 284.51903 1011.328666 399.104313 1011.328666 524.902364 1011.328666 657.458797 958.029614 777.624864 871.629853 867.019817ZM758.503766 766.949694 701.083125 716.159435C750.362989 667.39157 780.954904 599.756557 780.954904 524.953564 780.954904 456.960152 755.534174 395.033924 713.90869 347.674055L771.40613 296.806996C824.858782 357.709227 857.524292 437.350607 857.524292 524.799965 857.524292 619.135703 819.687597 704.562667 758.503766 766.949694ZM698.599932 493.107252C699.879929 498.201638 701.031925 503.372824 701.851123 508.672009 716.750282 606.514938 643.841684 698.777083 539.009974 714.751439 434.178264 730.725794 337.128933 664.345178 322.229774 566.502249 307.305016 468.65932 380.213614 376.397176 485.045323 360.42282 513.973243 356.019632 542.235565 358.093226 568.424293 365.158807L426.523886 79.233198C416.975112 60.59645 424.83429 38.042913 444.085437 28.878138 446.338231 27.802941 448.719024 27.726141 451.023018 27.111743L447.925426 21.04456C513.614844-15.38414 621.620945-7.140962 696.654337 67.76443 717.41588 88.500373 690.612754 143.77062 657.204847 114.7147 638.696098 98.612345 573.953877 81.306793 527.003607 108.033119L700.545527 457.651351C706.58711 469.478518 704.999914 482.534482 698.599932 493.107252ZM626.024133 520.115178C617.601756 464.384132 559.720317 427.033835 496.744491 436.685009 433.794265 446.336182 389.583188 499.328035 398.031164 555.059081 406.453541 610.790126 464.334981 648.166023 527.310806 638.48925 590.261032 628.838076 634.47211 575.846223 626.024133 520.115178ZM254.133963 754.405729C199.810913 693.298698 166.531006 613.01732 166.531006 524.799965 166.531006 443.46899 194.767727 368.845196 241.692397 309.76056L299.343438 360.781219C264.220335 406.221093 243.100394 463.052936 243.100394 524.953564 243.100394 593.663774 269.058722 656.153201 311.452204 703.692269L254.133963 754.405729ZM192.233334 809.163977 134.505494 860.235836C57.859307 771.557681 12.726631 654.156406 12.726631 524.902364 12.726631 402.637103 52.89292 290.765413 122.063929 203.956053L179.868569 255.079111C122.729527 328.269309 89.936018 422.297848 89.936018 524.902364 89.936018 634.546861 127.670313 734.104985 192.233334 809.163977Z" /></svg>