<?xml version="1.0" standalone="no"?><!DOCTYPE svg PUBLIC "-//W3C//DTD SVG 1.1//EN" "http://www.w3.org/Graphics/SVG/1.1/DTD/svg11.dtd"><svg class="icon" width="16px" height="13.61px" viewBox="0 0 1204 1024" version="1.1" xmlns="http://www.w3.org/2000/svg"><path d="M276.841412 785.287529h787.154823a37.707294 37.707294 0 0 0 35.177412-35.026823s53.970824-300.333176 78.607059-507.181177c7.077647-57.223529-19.907765-85.293176-72.734118-85.293176H245.187765l-14.155294-122.699294A36.592941 36.592941 0 0 0 198.174118 0H39.845647a39.755294 39.755294 0 0 0 0 79.450353h123.181177l79.811764 670.930823a35.84 35.84 0 0 0 34.002824 34.936471zM1101.552941 236.062118c-21.232941 165.948235-56.32 387.975529-70.384941 470.738823H310.874353l-56.32-470.738823h846.998588zM315.542588 864.737882a78.305882 78.305882 0 1 0 78.607059 78.305883 78.426353 78.426353 0 0 0-78.546823-78.305883h-0.060236z m709.722353 0a78.305882 78.305882 0 1 0 78.607059 78.305883 78.426353 78.426353 0 0 0-78.576941-78.305883z" fill="#2c2c2c" /></svg>