<?xml version="1.0" standalone="no"?><!DOCTYPE svg PUBLIC "-//W3C//DTD SVG 1.1//EN" "http://www.w3.org/Graphics/SVG/1.1/DTD/svg11.dtd"><svg class="icon" width="16px" height="16.00px" viewBox="0 0 1024 1024" version="1.1" xmlns="http://www.w3.org/2000/svg"><path d="M558.9 958.4c-28.1 0-68.8-9-103.2-51.6l-328-345.2c-4-3.6-16.4-15.4-29.1-32.7-21.1-28.5-32.4-56.8-33.6-84.2-1.3-29.4 9.4-56.9 31.1-79.6l0.8-0.8 0.8-0.7c3.7-3.4 37.9-33.2 88.1-33.2 21.9 0 43.1 5.6 63.4 16.8l157.5-146.9C411.3 196 525.1 93 659.6 93c68.2 0 129.1 26.1 181 77.6 82.8 82.1 109.1 184.9 76 297.2-24.2 82.2-72 140.1-74 142.5l-0.7 0.8-0.7 0.8-170.5 177.7c8.1 18.3 15.9 45.7 9.9 75.7-6.3 31.5-25.8 57.6-57.9 77.7l-0.9 0.6-1 0.5c-2.8 1.4-28 14.3-61.9 14.3zM139.8 408.8c-9.5 10.4-13.7 21-13.1 33.3 1.4 30.9 32.3 64.8 43 74.3l1 0.9 0.9 1 330.5 348 0.8 1.1c15.7 19.8 34 29.4 55.8 29.4 16.2 0 29.3-5.5 32.4-6.8 16.5-10.6 25.9-22.5 28.7-36.3 5.1-24.6-11.2-49.6-12.4-51.2l-15.3-20.8 18.2-18.4 185.1-193c5-6.3 43.2-55.6 62.2-121.6 25.9-89.7 5.4-168.5-60.7-234.1-40-39.6-86.2-59.7-137.5-59.7-109.5 0-208.1 88.2-211.2 91L254 427.1l-20.8-16.4c-15.6-12.3-31.6-18.5-47.5-18.5-24 0-42.4 13.7-45.9 16.6z"  /><path d="M426.8 439.6c-6.6 0-13.3-2.1-19.1-6.3-14.2-10.5-17.1-30.6-6.6-44.8 32.5-43.7 71.2-84 115.1-119.7 40-32.6 78.2-54.5 113.5-65 53.3-15.9 101.8-6.4 140.1 27.5 13.2 11.7 14.5 31.9 2.7 45.2-11.7 13.2-31.9 14.5-45.2 2.7-39-34.5-96.4-21.3-170.8 39.2-39.8 32.4-74.8 68.8-104.2 108.3-6.1 8.5-15.7 12.9-25.5 12.9zM890.6 297l-42.9-47.5-0.3 0.2c2.3-2.1 30.5-29.3 33.5-32.2 19.4-20 19.9-51.8 1.3-72.5-18.8-20.9-50.5-23.5-72.4-6.1-2.2 2.1-9.8 9.3-14.5 13.8-7.2 6.9-7.8 7.5-8.5 8L744 113.2l-0.3 0.2c0.7-0.7 3.8-3.6 7.4-7 16-15.2 16.2-15.5 17.6-16.5 48.4-39.6 119.2-34.2 161.1 12.3 41.3 45.8 39.9 116.1-3.1 160.2-2 1.8-34.3 32.9-36.1 34.6zM302.3 893.3h-3.6c-44.6-0.9-86.2-19.2-117-51.4-63.7-66.5-61.5-172.4 5-236.1L231 652c-19.9 19-31.1 44.7-31.7 72.2-0.6 27.5 9.6 53.6 28.6 73.5s44.7 31.1 72.2 31.7c27.5 0.6 53.6-9.6 73.5-28.6l44.3 46.2c-31.4 29.9-72.3 46.3-115.6 46.3z"  /></svg>