<?xml version="1.0" standalone="no"?><!DOCTYPE svg PUBLIC "-//W3C//DTD SVG 1.1//EN" "http://www.w3.org/Graphics/SVG/1.1/DTD/svg11.dtd"><svg class="icon" width="16px" height="15.68px" viewBox="0 0 1045 1024" version="1.1" xmlns="http://www.w3.org/2000/svg"><path d="M733.052282 713.825726L641.699585 662.838174c-4.248963-2.124481-10.622407-4.248963-14.871369-4.248962-10.622407 0-19.120332 4.248963-23.369295 12.746888-6.373444 12.746888-2.124481 29.742739 12.746888 38.240663l89.228216 50.987552c4.248963 2.124481 10.622407 4.248963 14.871369 4.248963 10.622407 0 19.120332-4.248963 23.369295-12.746888 8.497925-12.746888 2.124481-29.742739-10.622407-38.240664z m12.746888-463.136929H276.288797c-16.995851 0-29.742739 12.746888-29.742739 25.493776 0 14.871369 12.746888 27.618257 29.742739 27.618257H408.006639v53.112033h-110.473029-2.124481c-6.373444 0-12.746888 2.124481-16.995851 6.373444-4.248963 4.248963-8.497925 10.622407-8.497925 16.995851v74.356846c0 4.248963 2.124481 8.497925 4.248962 12.746888v2.124481c4.248963 8.497925 12.746888 12.746888 21.244814 12.746888h422.771784c8.497925 0 16.995851-4.248963 21.244813-10.622406v-2.124482c2.124481-4.248963 4.248963-8.497925 4.248963-12.746888V386.655602c0-6.373444-2.124481-12.746888-8.497926-16.995851-4.248963-4.248963-10.622407-8.497925-16.99585-8.497925H599.209959v-46.738589-2.124482-4.248962h148.713692c16.995851 0 29.742739-12.746888 29.742739-27.618258-2.124481-16.995851-14.871369-29.742739-31.86722-29.742738z m-148.713693 184.829875v-8.497925-23.369295h93.477179v33.991702l-93.477179-2.124482z m-53.112033-131.717842V354.788382h-82.854772v-46.738589-2.124482-4.248962h82.854772zM323.027386 435.518672v-33.991701h84.979253v33.991701h-84.979253z m138.091286 0v-10.622406-23.369295h84.979253v33.991701h-84.979253z m-82.854772 223.07054c-6.373444 0-10.622407 2.124481-14.871369 4.248962l-89.228216 50.987552c-6.373444 4.248963-12.746888 10.622407-14.871369 19.120332-2.124481 6.373444 0 12.746888 2.124481 19.120332 4.248963 8.497925 12.746888 12.746888 23.369295 12.746888 6.373444 0 10.622407-2.124481 14.871369-4.248963l89.228216-50.987552c6.373444-4.248963 12.746888-10.622407 14.871369-16.99585 2.124481-6.373444 2.124481-14.871369-2.124481-21.244813-4.248963-6.373444-14.871369-12.746888-23.369295-12.746888z m352.663901-65.858922H276.288797c-14.871369 0-27.618257 10.622407-27.618258 25.493776s12.746888 25.493776 27.618258 25.493776h212.448132v97.726141c0 14.871369 10.622407 27.618257 25.493776 27.618258s25.493776-12.746888 25.493776-27.618258v-97.726141h191.20332c14.871369 0 27.618257-10.622407 27.618257-25.493776s-12.746888-25.493776-27.618257-25.493776z m-23.369295-21.244813c14.871369 0 27.618257-10.622407 27.618257-25.493776s-12.746888-25.493776-27.618257-25.493776H320.902905c-14.871369 0-27.618257 10.622407-27.618258 25.493776s12.746888 25.493776 27.618258 25.493776h386.655601zM509.981743 0c-280.431535 0-509.875519 229.443983-509.875519 509.875519s229.443983 509.875519 509.875519 509.875518 509.875519-229.443983 509.875518-509.875518-227.319502-509.875519-509.875518-509.875519z m0 966.639004C259.292946 966.639004 53.218257 762.688797 53.218257 509.875519 53.218257 259.186722 259.292946 55.236515 509.981743 55.236515c252.813278 0 456.763485 203.950207 456.763485 456.763485 0 250.688797-203.950207 454.639004-456.763485 454.639004z" fill="#2c2c2c" /></svg>