<?xml version="1.0" standalone="no"?><!DOCTYPE svg PUBLIC "-//W3C//DTD SVG 1.1//EN" "http://www.w3.org/Graphics/SVG/1.1/DTD/svg11.dtd"><svg class="icon" width="16px" height="16.00px" viewBox="0 0 1024 1024" version="1.1" xmlns="http://www.w3.org/2000/svg"><path d="M581.818182 581.818182c-13.963636 0-23.272727 9.309091-23.272727 23.272727s9.309091 23.272727 23.272727 23.272727 23.272727-9.309091 23.272727-23.272727-9.309091-23.272727-23.272727-23.272727z m-139.636364 0c-13.963636 0-23.272727 9.309091-23.272727 23.272727s9.309091 23.272727 23.272727 23.272727 23.272727-9.309091 23.272727-23.272727-9.309091-23.272727-23.272727-23.272727z m-116.363636 116.363636h-46.545455v-46.545454c0-13.963636-9.309091-23.272727-23.272727-23.272728s-23.272727 9.309091-23.272727 23.272728v46.545454H186.181818c-13.963636 0-23.272727 9.309091-23.272727 23.272727s9.309091 23.272727 23.272727 23.272728h46.545455v46.545454c0 13.963636 9.309091 23.272727 23.272727 23.272728s23.272727-9.309091 23.272727-23.272728v-46.545454h46.545455c13.963636 0 23.272727-9.309091 23.272727-23.272728s-9.309091-23.272727-23.272727-23.272727z m442.181818-232.727273h-230.4c-23.272727-41.890909-4.654545-62.836364 30.254545-97.745454 27.927273-27.927273 62.836364-60.509091 62.836364-111.709091 0-130.327273-146.618182-204.8-153.6-207.127273-11.636364-4.654545-25.6 0-30.254545 9.309091-4.654545 11.636364 0 25.6 9.309091 30.254546 2.327273 0 125.672727 65.163636 125.672727 165.236363 0 32.581818-23.272727 55.854545-48.872727 79.127273-32.581818 30.254545-69.818182 69.818182-46.545455 130.327273H256C114.036364 465.454545 0 579.490909 0 721.454545s114.036364 256 256 256c79.127273 0 151.272727-37.236364 197.818182-93.090909h116.363636c46.545455 55.854545 118.690909 93.090909 197.818182 93.090909 141.963636 0 256-114.036364 256-256s-114.036364-256-256-256z m0 465.454546c-72.145455 0-137.309091-37.236364-174.545455-93.090909h-162.90909c-37.236364 55.854545-102.4 93.090909-174.545455 93.090909-116.363636 0-209.454545-93.090909-209.454545-209.454546s93.090909-209.454545 209.454545-209.454545h512c116.363636 0 209.454545 93.090909 209.454545 209.454545s-93.090909 209.454545-209.454545 209.454546z m-46.545455-209.454546c-25.6 0-46.545455 20.945455-46.545454 46.545455s20.945455 46.545455 46.545454 46.545455 46.545455-20.945455 46.545455-46.545455-20.945455-46.545455-46.545455-46.545455z m93.09091-93.090909c-25.6 0-46.545455 20.945455-46.545455 46.545455s20.945455 46.545455 46.545455 46.545454 46.545455-20.945455 46.545454-46.545454-20.945455-46.545455-46.545454-46.545455z" fill="#2c2c2c" /></svg>