<?xml version="1.0" standalone="no"?><!DOCTYPE svg PUBLIC "-//W3C//DTD SVG 1.1//EN" "http://www.w3.org/Graphics/SVG/1.1/DTD/svg11.dtd"><svg class="icon" width="32px" height="32.00px" viewBox="0 0 1024 1024" version="1.1" xmlns="http://www.w3.org/2000/svg"><path d="M1013.333333 0H623.36L276.053333 533.333333h389.973334z" fill="#319bd2" /><path d="M10.666667 0h389.973333l347.306667 533.333333H357.973333z" fill="#41c3ff" /><path d="M522.666667 640m-384 0a384 384 0 1 0 768 0 384 384 0 1 0-768 0Z" fill="#c3cdd7" /><path d="M522.666667 640m-256 0a256 256 0 1 0 512 0 256 256 0 1 0-512 0Z" fill="#e5e8ec" /><path d="M525.013333 480a105.450667 105.450667 0 0 0-79.36 34.133333 120.256 120.256 0 0 0-29.866666 83.2h49.92a95.488 95.488 0 0 1 15.36-55.466666 49.066667 49.066667 0 0 1 42.24-19.2 55.466667 55.466667 0 0 1 39.68 12.8 47.04 47.04 0 0 1 13.226666 36.266666 74.090667 74.090667 0 0 1-20.053333 49.066667 457.898667 457.898667 0 0 1-41.813333 34.133333 376.874667 376.874667 0 0 0-69.973334 55.466667 116.757333 116.757333 0 0 0-30.293333 81.066667h212.693333V746.666667h-150.4a163.392 163.392 0 0 1 56.746667-53.333334 349.653333 349.653333 0 0 0 63.146667-49.066666 103.701333 103.701333 0 0 0 30.08-72.533334 87.594667 87.594667 0 0 0-28.373334-66.133333 105.728 105.728 0 0 0-72.96-25.6z" fill="#8dadce" /></svg>