<?xml version="1.0" standalone="no"?><!DOCTYPE svg PUBLIC "-//W3C//DTD SVG 1.1//EN" "http://www.w3.org/Graphics/SVG/1.1/DTD/svg11.dtd"><svg class="icon" width="32px" height="32.00px" viewBox="0 0 1024 1024" version="1.1" xmlns="http://www.w3.org/2000/svg"><path d="M1013.333333 0H623.36L276.053333 533.333333h389.973334z" fill="#d88d73" /><path d="M10.666667 0h389.973333l347.306667 533.333333H357.973333z" fill="#f0ad92" /><path d="M522.666667 640m-384 0a384 384 0 1 0 768 0 384 384 0 1 0-768 0Z" fill="#e5b890" /><path d="M522.666667 640m-256 0a256 256 0 1 0 512 0 256 256 0 1 0-512 0Z" fill="#f3cfae" /><path d="M523.306667 480a107.2 107.2 0 0 0-73.813334 25.6 98.858667 98.858667 0 0 0-34.133333 72.533333h49.066667a55.744 55.744 0 0 1 17.92-40.533333 52.650667 52.650667 0 0 1 41.386666-14.933333 55.466667 55.466667 0 0 1 39.68 12.8 43.264 43.264 0 0 1 12.373334 34.133333 44.010667 44.010667 0 0 1-13.653334 34.133333 72.192 72.192 0 0 1-40.96 10.666667h-21.333333v38.4h21.333333a68.586667 68.586667 0 0 1 44.8 10.666667 47.36 47.36 0 0 1 15.786667 38.4 46.634667 46.634667 0 0 1-14.933333 36.266666 64 64 0 0 1-45.653334 17.066667 56.448 56.448 0 0 1-42.24-14.933333 60.501333 60.501333 0 0 1-18.773333-44.8h-50.773333a102.954667 102.954667 0 0 0 35.84 76.8 110.933333 110.933333 0 0 0 76.373333 25.6 122.837333 122.837333 0 0 0 80.64-27.733334 90.901333 90.901333 0 0 0 29.653333-70.4 59.413333 59.413333 0 0 0-15.573333-42.666666 81.066667 81.066667 0 0 0-41.386667-25.6 65.92 65.92 0 0 0 50.986667-66.133334 73.856 73.856 0 0 0-27.946667-61.866666 117.333333 117.333333 0 0 0-74.666666-23.466667z" fill="#ce8f5a" /></svg>