<?xml version="1.0" standalone="no"?><!DOCTYPE svg PUBLIC "-//W3C//DTD SVG 1.1//EN" "http://www.w3.org/Graphics/SVG/1.1/DTD/svg11.dtd"><svg class="icon" width="32px" height="32.00px" viewBox="0 0 1024 1024" version="1.1" xmlns="http://www.w3.org/2000/svg"><path d="M1013.333333 0H623.36L276.053333 533.333333h389.973334z" fill="#ed3434" /><path d="M10.666667 0h389.973333l347.306667 533.333333H357.973333z" fill="#ff5f4e" /><path d="M522.666667 640m-384 0a384 384 0 1 0 768 0 384 384 0 1 0-768 0Z" fill="#ffc22f" /><path d="M522.666667 640m-256 0a256 256 0 1 0 512 0 256 256 0 1 0-512 0Z" fill="#ffd883" /><path d="M531.84 486.4a164.032 164.032 0 0 1-38.4 29.866667 234.666667 234.666667 0 0 1-43.52 19.2v49.066666a174.229333 174.229333 0 0 0 69.546667-38.4v245.333334h49.92V486.4h-37.546667z" fill="#ff7854" /></svg>