<?xml version="1.0" standalone="no"?><!DOCTYPE svg PUBLIC "-//W3C//DTD SVG 1.1//EN" "http://www.w3.org/Graphics/SVG/1.1/DTD/svg11.dtd"><svg class="icon" width="16px" height="16.00px" viewBox="0 0 1024 1024" version="1.1" xmlns="http://www.w3.org/2000/svg"><path d="M386.67299798 186.11160469H286.36047628C231.23950943 186.11160469 186.11160469 231.23950943 186.11160469 286.36047628V386.6093479c0 55.12096687 45.12790475 100.2488716 100.2488716 100.24887161H386.6093479c55.12096687 0 100.2488716-45.12790475 100.24887161-100.24887161V286.36047628C486.92186958 231.23950943 441.79396483 186.11160469 386.67299798 186.11160469z m350.96652574 0H637.32700202c-55.12096687 0-100.2488716 45.12790475-100.2488716 100.2488716V386.6093479c0 55.12096687 45.12790475 100.2488716 100.2488716 100.24887161h100.24887161c55.12096687 0 100.2488716-45.12790475 100.24887161-100.24887161V286.36047628C837.88839531 231.23950943 792.76049057 186.11160469 737.63952372 186.11160469zM386.67299798 537.07813042H286.36047628C231.23950943 537.07813042 186.11160469 582.20603517 186.11160469 637.32700202v100.24887161C186.11160469 792.76049057 231.23950943 837.88839531 286.36047628 837.88839531H386.6093479c55.12096687 0 100.2488716-45.12790475 100.24887161-100.2488716V637.32700202c0.06365008-55.12096687-45.06425466-100.2488716-100.18522153-100.2488716z m350.96652574 0H637.32700202c-55.12096687 0-100.2488716 45.12790475-100.2488716 100.2488716v100.2488716c0 55.12096687 45.12790475 100.2488716 100.2488716 100.24887162h100.24887161c55.12096687 0 100.2488716-45.12790475 100.24887161-100.24887162V637.32700202c0.06365008-55.12096687-45.06425466-100.2488716-100.18522153-100.2488716z" fill="#ffffff" /></svg>