<?xml version="1.0" standalone="no"?><!DOCTYPE svg PUBLIC "-//W3C//DTD SVG 1.1//EN" "http://www.w3.org/Graphics/SVG/1.1/DTD/svg11.dtd"><svg class="icon" width="16px" height="16.00px" viewBox="0 0 1024 1024" version="1.1" xmlns="http://www.w3.org/2000/svg"><path d="M512 0c282.779826 0 512 229.220174 512 512S794.779826 1024 512 1024 0 794.779826 0 512 229.220174 0 512 0z m0 222.608696c-159.833043 0-289.391304 129.558261-289.391304 289.391304a288.946087 288.946087 0 0 0 122.946782 236.744348c-50.198261 4.006957-94.519652 15.671652-132.964174 35.038609a22.26087 22.26087 0 1 0 20.034783 39.757913c56.854261-28.649739 130.782609-38.13287 222.052174-27.826087 18.521043 3.717565 37.687652 5.676522 57.321739 5.676521 159.833043 0 289.391304-129.558261 289.391304-289.391304s-129.558261-289.391304-289.391304-289.391304z m0 400.695652a66.782609 66.782609 0 1 1 0 133.565217 66.782609 66.782609 0 0 1 0-133.565217z m-178.086957-178.086957a66.782609 66.782609 0 1 1 0 133.565218 66.782609 66.782609 0 0 1 0-133.565218z m356.173914 0a66.782609 66.782609 0 1 1 0 133.565218 66.782609 66.782609 0 0 1 0-133.565218z m-178.086957 25.444174a41.338435 41.338435 0 1 1 0 82.67687 41.338435 41.338435 0 0 1 0-82.67687zM512 267.130435a66.782609 66.782609 0 1 1 0 133.565217 66.782609 66.782609 0 0 1 0-133.565217z" fill="#ffffff" /></svg>