<?xml version="1.0" standalone="no"?><!DOCTYPE svg PUBLIC "-//W3C//DTD SVG 1.1//EN" "http://www.w3.org/Graphics/SVG/1.1/DTD/svg11.dtd"><svg class="icon" width="16px" height="16.00px" viewBox="0 0 1024 1024" version="1.1" xmlns="http://www.w3.org/2000/svg"><path d="M511.488 173.056l152.064 243.2c5.632 9.216 15.36 15.872 26.112 18.432 3.072 0.512 5.632 1.024 8.704 1.024 8.192 0 15.872-2.56 23.04-7.168l136.192-91.648L771.584 814.08H256l-88.576-477.696 128.512 91.648c7.168 5.12 15.36 7.68 23.552 7.68 2.56 0 5.12 0 7.68-0.512 10.752-2.048 20.48-8.704 26.624-17.92l157.696-244.224M512 107.52c-4.096 0-8.192 2.048-10.752 5.632l-181.248 281.6-185.856-132.608c-2.048-1.536-4.608-2.56-7.168-2.56-7.168 0-14.336 7.168-12.288 15.872L219.136 839.68c1.536 9.216 9.216 15.36 17.92 15.36h552.96c8.704 0 16.384-6.656 17.92-15.872l100.864-559.616c1.536-8.704-5.12-15.872-12.288-15.872-2.048 0-4.608 0.512-6.656 2.048l-192 129.024L522.24 113.664c-2.048-4.096-6.144-6.144-10.24-6.144zM798.208 942.08H228.864c-6.144 0-10.752-4.608-10.752-10.752v-26.624c0-6.144 4.608-10.752 10.752-10.752H798.208c6.144 0 10.752 4.608 10.752 10.752v26.624c0 5.632-4.608 10.752-10.752 10.752z" fill="#ffffff" /><path d="M516.096 55.296m-35.84 0a35.84 35.84 0 1 0 71.68 0 35.84 35.84 0 1 0-71.68 0Z" fill="#ffffff" /><path d="M106.496 217.6m-35.84 0a35.84 35.84 0 1 0 71.68 0 35.84 35.84 0 1 0-71.68 0Z" fill="#ffffff" /><path d="M902.144 217.6m-35.84 0a35.84 35.84 0 1 0 71.68 0 35.84 35.84 0 1 0-71.68 0Z" fill="#ffffff" /></svg>