<?xml version="1.0" standalone="no"?><!DOCTYPE svg PUBLIC "-//W3C//DTD SVG 1.1//EN" "http://www.w3.org/Graphics/SVG/1.1/DTD/svg11.dtd"><svg class="icon" width="16px" height="16.00px" viewBox="0 0 1024 1024" version="1.1" xmlns="http://www.w3.org/2000/svg"><path d="M928.78 958.52H90.7a29.598 29.598 0 0 1-25.95-14.67 29.576 29.576 0 0 1 0-29.8 29.566 29.566 0 0 1 25.95-14.67h838.08a29.591 29.591 0 0 1 25.94 14.67 29.576 29.576 0 0 1 0 29.8 29.547 29.547 0 0 1-25.94 14.67zM108.7 820.97a29.62 29.62 0 0 1-20.99-8.63 29.692 29.692 0 0 1-8.75-20.95V604.02c0-16.43 13.32-29.74 29.74-29.74s29.74 13.32 29.74 29.74v187.37c-0.02 7.87-3.17 15.4-8.74 20.95a29.678 29.678 0 0 1-21 8.63z m198.6 4.74c-7.87 0.03-15.42-3.08-21-8.63a29.64 29.64 0 0 1-8.74-20.95V511.49c0-16.43 13.32-29.74 29.74-29.74s29.74 13.32 29.74 29.74v284.63a29.65 29.65 0 0 1-8.75 20.95 29.66 29.66 0 0 1-21 8.63v0.01z m198.59 4.74a29.62 29.62 0 0 1-20.99-8.63 29.65 29.65 0 0 1-8.75-20.95V416.62c0-16.43 13.32-29.74 29.74-29.74 16.43 0 29.74 13.32 29.74 29.74v384.24c-0.02 7.87-3.17 15.4-8.74 20.95a29.66 29.66 0 0 1-21 8.63v0.01z m198.59 0a29.66 29.66 0 0 1-21-8.63 29.692 29.692 0 0 1-8.75-20.95V331.23c0-16.43 13.32-29.74 29.75-29.74s29.74 13.32 29.74 29.74v469.63c-0.02 7.87-3.17 15.4-8.75 20.94a29.654 29.654 0 0 1-20.99 8.63v0.02z m198.59 0a29.66 29.66 0 0 1-21-8.63 29.657 29.657 0 0 1-8.74-20.95V212.64c0-16.43 13.32-29.74 29.74-29.74 16.43 0 29.74 13.32 29.74 29.74v588.22a29.65 29.65 0 0 1-8.75 20.95 29.654 29.654 0 0 1-20.99 8.63v0.01z m0 0" fill="#ffffff" /><path d="M929.21 959.52H90.29c-10.85 0-20.91-5.78-26.37-15.16-5.56-9.5-5.56-21.32 0-30.83a30.536 30.536 0 0 1 26.37-15.16H929.21c10.85 0 20.91 5.78 26.37 15.16 5.56 9.5 5.56 21.32 0 30.83a30.548 30.548 0 0 1-26.37 15.16z m-0.42-2H929.2c10.11 0 19.55-5.41 24.66-14.18a28.545 28.545 0 0 0 0-28.78c-5.12-8.77-14.55-14.18-24.66-14.18H90.31c-10.14 0-19.57 5.41-24.69 14.18a28.545 28.545 0 0 0 0 28.78c5.12 8.77 14.55 14.18 24.66 14.18h838.51z m-25.81-126.07c-8.16 0-15.84-3.17-21.62-8.92-5.73-5.68-9.02-13.55-9.04-21.64V212.64c0-16.96 13.79-30.76 30.76-30.76 16.94 0 30.73 13.79 30.73 30.76v588.22c-0.02 8.19-3.24 15.89-9.04 21.67-5.73 5.68-13.6 8.92-21.59 8.92h-0.2z m0.1-647.57c-15.87 0-28.76 12.89-28.76 28.76v588.24c0.02 7.56 3.1 14.92 8.46 20.23 5.41 5.39 12.58 8.33 20.2 8.33h0.2c7.48 0 14.84-3.05 20.18-8.33 5.43-5.41 8.43-12.6 8.46-20.25V212.64c0-15.87-12.9-28.76-28.74-28.76z m-198.7 647.57c-8.16 0-15.84-3.17-21.62-8.92-5.73-5.68-9.02-13.55-9.04-21.64V331.23c0-16.94 13.79-30.73 30.76-30.73 16.94 0 30.73 13.79 30.73 30.73v469.63c-0.02 8.19-3.24 15.89-9.04 21.67-5.73 5.68-13.6 8.92-21.59 8.92h-0.2z m0.1-528.96c-15.87 0-28.76 12.89-28.76 28.73v469.66c0.02 7.56 3.1 14.92 8.46 20.23 5.41 5.39 12.58 8.33 20.2 8.33h0.2c7.48 0 14.84-3.05 20.18-8.33 5.43-5.41 8.43-12.6 8.46-20.25V331.23c0-15.84-12.9-28.74-28.74-28.74z m-198.7 528.96c-8.14 0-15.82-3.17-21.59-8.92-5.73-5.68-9.02-13.55-9.04-21.64V416.62c0-16.94 13.79-30.73 30.73-30.73 16.96 0 30.76 13.79 30.76 30.73v384.23c-0.02 8.19-3.24 15.89-9.04 21.67-5.73 5.68-13.6 8.92-21.62 8.92-0.1 0.01-0.15 0.01-0.2 0.01z m0.1-443.56c-15.84 0-28.73 12.89-28.73 28.73v384.26c0.02 7.56 3.1 14.92 8.46 20.23 5.41 5.39 12.58 8.33 20.18 8.33h0.2c7.51 0 14.87-3.05 20.2-8.33 5.43-5.41 8.43-12.6 8.46-20.25V416.62c-0.01-15.84-12.9-28.73-28.77-28.73zM307.21 826.72c-8.02 0-15.89-3.24-21.62-8.92-5.8-5.78-9.02-13.48-9.04-21.67V511.5c0-16.96 13.79-30.76 30.76-30.76 16.94 0 30.73 13.79 30.73 30.76v284.61c-0.02 8.19-3.24 15.89-9.04 21.67-5.48 5.46-12.97 8.68-20.69 8.9v0.02l-1 0.02h-0.1z m0.1-343.98c-15.87 0-28.76 12.89-28.76 28.76v284.63c0.02 7.65 3.02 14.84 8.46 20.25 5.12 5.09 12.11 8.09 19.3 8.31h1.1c7.51 0 14.87-3.05 20.18-8.33 5.43-5.41 8.43-12.6 8.46-20.25V511.5c-0.01-15.86-12.9-28.76-28.74-28.76z m-198.7 339.22c-8.16 0-15.84-3.17-21.62-8.92-5.8-5.78-9.02-13.48-9.04-21.67V604.01c0-16.94 13.79-30.73 30.76-30.73 16.94 0 30.73 13.79 30.73 30.73v187.36c-0.02 8.19-3.24 15.89-9.04 21.67-5.68 5.68-13.55 8.92-21.59 8.92h-0.2z m0.1-246.68c-15.87 0-28.76 12.89-28.76 28.73v187.36c0.02 7.65 3.02 14.84 8.46 20.25 5.41 5.39 12.58 8.33 20.2 8.33h0.2c7.53 0 14.89-3.02 20.18-8.33 5.43-5.41 8.43-12.6 8.46-20.25V604.01c-0.01-15.84-12.9-28.73-28.74-28.73z" fill="#ffffff" /><path d="M134.46 498.78a29.72 29.72 0 0 1-26.56-16.3 29.378 29.378 0 0 1 13.28-39.55l626.19-311.01-101.63-6.85a29.474 29.474 0 0 1-24.83-16.35 29.49 29.49 0 0 1 28.86-42.48l195.52 13.18c15.23 0.96 27.94 11.96 31.08 26.89 2.91 14.82-4.48 29.76-18.03 36.45L147.72 495.67a29.898 29.898 0 0 1-13.26 3.11z m0 0" fill="#ffffff" /><path d="M134.39 499.78c-11.63 0-22.13-6.46-27.39-16.84-3.61-7.21-4.19-15.72-1.63-23.32 2.56-7.63 8.16-14.04 15.38-17.6l622.88-309.34-97.95-6.6c-10.94-0.61-20.79-7.09-25.66-16.91-4.87-9.82-4.07-21.57 2.1-30.66 6.19-9.11 16.96-14.18 27.73-13.26l195.5 13.18c15.62 0.97 28.78 12.36 32 27.69 3 15.23-4.65 30.66-18.57 37.53L148.16 496.56a31.02 31.02 0 0 1-13.7 3.22h-0.07zM647.31 67.14c-9.38 0-18.23 4.63-23.54 12.48-5.78 8.48-6.51 19.47-1.95 28.66a28.547 28.547 0 0 0 23.98 15.79l105.33 7.09-3.31 1.66-626.19 311c-6.75 3.31-11.97 9.31-14.35 16.43-2.41 7.12-1.85 15.06 1.54 21.79 4.9 9.72 14.72 15.74 25.59 15.74h0.07c4.41 0 8.85-1.05 12.82-3.02l710.6-352.92c13.11-6.46 20.3-20.98 17.5-35.34-3.05-14.43-15.45-25.15-30.2-26.08L649.7 67.24c-0.81-0.07-1.61-0.1-2.39-0.1z" fill="#ffffff" /></svg>