<?xml version="1.0" standalone="no"?><!DOCTYPE svg PUBLIC "-//W3C//DTD SVG 1.1//EN" "http://www.w3.org/Graphics/SVG/1.1/DTD/svg11.dtd"><svg class="icon" width="16px" height="16.00px" viewBox="0 0 1024 1024" version="1.1" xmlns="http://www.w3.org/2000/svg"><path d="M661.333333 980.736l-320 0a106.666667 106.666667 0 0 1-106.666666-106.666667L234.666667 433.834667c0.192-13.824 2.624-52.714667 36.864-82.133334l41.749333-34.773333a48255.04 48255.04 0 0 1 242.24-197.248 85.333333 85.333333 0 0 1 132.330667 78.72l-16.853334 164.053333a106.88 106.88 0 0 1 5.226667 0.618667C835.093333 376.106667 960 509.162667 960 671.402667 960 831.274667 838.698667 963.84 683.093333 980.096l-6.890666 0.64c-4.842667 0.682667-9.813333 0-14.869334 0z m-362.666666-106.666667a42.666667 42.666667 0 0 0 42.666666 42.666667H663.232l6.549333 0.256-2.56 0.362667 10.069334-1.002667C800.64 903.04 896 797.461333 896 671.402667c0-127.936-98.346667-234.154667-225.002667-244.522667l-9.493333-1.088A64 64 0 0 1 607.36 355.968l16.768-163.328a21.333333 21.333333 0 0 0-31.36-20.693333l-224.874667 182.976c-8.896 7.274667-16.810667 13.802667-23.744 19.52l-30.890666 25.813333a39.04 39.04 0 0 0-8.277334 9.770667c-4.117333 6.933333-5.802667 13.930667-6.208 22.357333l-0.106666 4.266667L298.666667 874.090667z" fill="#212121" /><path d="M128 959.402667m-32 0l0 0q-32 0-32-32l0-512q0-32 32-32l0 0q32 0 32 32l0 512q0 32-32 32Z" fill="#212121" /></svg>