<?xml version="1.0" standalone="no"?><!DOCTYPE svg PUBLIC "-//W3C//DTD SVG 1.1//EN" "http://www.w3.org/Graphics/SVG/1.1/DTD/svg11.dtd"><svg class="icon" width="16px" height="16.00px" viewBox="0 0 1024 1024" version="1.1" xmlns="http://www.w3.org/2000/svg"><path d="M910.222222 274.488889V224.967111H113.777778V279.893333l386.389333 263.310223c0.711111 0.483556 1.507556 0.483556 2.332445-0.056889L907.093333 276.280889A28.728889 28.728889 0 0 1 910.222222 274.517333z m0 67.896889l-376.120889 248.035555c-19.911111 13.482667-46.08 13.368889-65.962666-0.199111L113.777778 348.728889v445.098667h796.444444V342.385778zM113.777778 168.021333h796.444444a56.888889 56.888889 0 0 1 56.888889 56.888889v568.888889a56.888889 56.888889 0 0 1-56.888889 56.888889H113.777778a56.888889 56.888889 0 0 1-56.888889-56.888889v-568.888889a56.888889 56.888889 0 0 1 56.888889-56.888889z" fill="#ffffff" /></svg>