<?xml version="1.0" standalone="no"?><!DOCTYPE svg PUBLIC "-//W3C//DTD SVG 1.1//EN" "http://www.w3.org/Graphics/SVG/1.1/DTD/svg11.dtd"><svg class="icon" width="16px" height="13.57px" viewBox="0 0 1207 1024" version="1.1" xmlns="http://www.w3.org/2000/svg"><path d="M1182.01743 300.19v163.577H515.68243c-102.584 30.011-165.31 315.13 16.358 393.295l405.084 1.05c61.44-9.137 58.446-128.735 0.42-124.455l-244.264 0.105c-89.64-2.679-92.527-152.655-1.339-159.613l223.784 0.052 33.74 0.604c214.96 7.195 208.134 426.85 20.4 446.937h-37.389l-418.212 0.368c-19.64-1.366-60.442-17.855-83.6-35.92-240.982-187.549-176.076-526.414-2.206-646.563 17.46-12.078 44.82-37.626 91.661-39.437h661.924z m-106.18-285.565c15.307 0 27.778 14.31 27.778 31.77v104.842c0 17.487-12.47 31.823-27.779 31.823h-745.84c-15.36 0-27.805-14.336-27.805-31.823V46.42c0-17.486 12.446-31.796 27.806-31.796h745.84zM59.58143 462.559c-83.05-13.076-75.75-153.39 0-162.763h307.042c-54.167 34.133-95.73 86.672-120.674 163.603l-186.368-0.84z" fill="#ffffff" /></svg>