<?xml version="1.0" standalone="no"?><!DOCTYPE svg PUBLIC "-//W3C//DTD SVG 1.1//EN" "http://www.w3.org/Graphics/SVG/1.1/DTD/svg11.dtd"><svg class="icon" width="48px" height="47.86px" viewBox="0 0 1027 1024" version="1.1" xmlns="http://www.w3.org/2000/svg"><path d="M747.947348 448.049238L462.954053 276.22642c-23.933925-14.145198-52.215431-22.849252-78.318701-6.525817-19.559671 13.051635-27.196833 33.722651-27.196833 55.478339V676.541757c0 22.840361 6.525817 43.511377 26.10327 56.563012 25.018597 15.229871 52.215431 7.619381 75.055792-5.441145l289.349767-174.063289c45.689613-28.281506 47.867849-77.234028 0-105.551097z" fill="#ffffff" /><path d="M983.854761 313.398686A511.938823 511.938823 0 1 0 1023.960977 512.062707a508.551443 508.551443 0 0 0-40.106216-198.664021zM513.684726 993.888527c-265.691457 0-481.879165-216.161036-481.879164-481.879165S247.966597 30.183542 513.684726 30.183542s481.879165 216.161036 481.879165 481.879165-216.205489 481.82582-481.879165 481.82582z" fill="#ffffff" /></svg>