<?xml version="1.0" standalone="no"?><!DOCTYPE svg PUBLIC "-//W3C//DTD SVG 1.1//EN" "http://www.w3.org/Graphics/SVG/1.1/DTD/svg11.dtd"><svg class="icon" width="16px" height="16.00px" viewBox="0 0 1024 1024" version="1.1" xmlns="http://www.w3.org/2000/svg"><path d="M774.656 493.824c-9.472 0-19.2-0.512-28.928-1.792-65.536-7.68-123.904-40.448-164.864-92.16-40.96-51.712-59.136-116.224-51.456-181.76C545.28 83.2 667.904-13.824 803.072 2.048c135.168 15.872 232.192 138.752 216.32 273.664C1004.8 401.152 898.048 493.824 774.656 493.824zM774.4 48.384c-99.328 0-185.344 74.496-197.12 175.616-6.144 52.736 8.448 104.704 41.472 146.176s80.128 67.84 132.608 73.984c7.68 1.024 15.616 1.28 23.296 1.28 99.328 0 185.344-74.496 197.12-175.616 12.8-108.8-65.28-207.616-174.08-220.416C789.76 48.896 782.08 48.384 774.4 48.384z" fill="#ffffff" /><path d="M145.664 660.992c-6.144 0-12.544-2.304-17.152-7.168-9.216-9.472-9.216-24.832 0.256-34.048l401.92-395.264c9.472-9.216 24.832-9.216 34.048 0.256 9.216 9.472 9.216 24.832-0.256 34.048l-401.92 395.264C157.952 658.688 151.808 660.992 145.664 660.992z" fill="#ffffff" /><path d="M201.472 725.504c-9.216 0-17.92-5.376-22.016-14.336-5.376-12.032 0-26.368 12.032-31.744l514.048-231.424c12.032-5.376 26.368 0 31.744 12.032 5.376 12.032 0 26.368-12.032 31.744L211.456 723.456C208.128 724.736 204.8 725.504 201.472 725.504z" fill="#ffffff" /><path d="M197.888 727.04c-7.168 0-14.08-3.072-18.944-9.216l-51.968-66.304c-8.192-10.496-6.4-25.6 4.096-33.792 10.496-8.192 25.6-6.4 33.792 4.096l51.968 66.304c8.192 10.496 6.4 25.6-4.096 33.792C208.384 725.504 203.008 727.04 197.888 727.04z" fill="#ffffff" /><path d="M145.152 679.936" fill="#ffffff" /><path d="M427.008 1024c-3.584 0-7.168-1.28-10.24-3.584-6.912-5.632-7.936-15.872-2.048-22.528l65.792-79.616c19.712-22.784 71.168-91.136 72.192-135.424 0.512-21.248-4.608-35.584-14.848-42.496-19.968-13.312-60.672-2.816-91.904 11.52-27.904 12.544-113.664 67.84-142.336 90.368-28.672 22.784-121.856 87.296-161.536 104.448-37.376 16.128-68.608 17.408-92.928 3.84-24.064-13.312-39.424-40.448-45.312-80.384-17.152-113.152 111.104-194.304 135.424-204.8 8.192-3.328 17.664 0.256 20.992 8.448 3.328 8.192-0.256 17.664-8.448 20.992-17.408 7.424-130.304 77.568-116.224 170.24 4.352 29.44 14.336 48.64 29.184 57.088 18.944 10.496 45.568 3.072 64.512-5.12 34.56-14.848 123.392-75.52 154.368-100.096 30.464-24.064 118.784-80.896 148.992-94.464 24.32-11.008 85.248-33.792 122.88-8.96 20.224 13.312 29.952 36.864 29.184 69.888-1.536 64-75.008 150.016-79.872 155.648l-65.28 79.36C436.224 1021.952 431.616 1024 427.008 1024z" fill="#ffffff" /><path d="M626.944 524.544c-0.768 0-1.792 0-2.56-0.256-103.168-12.032-177.152-107.264-164.864-211.968 1.28-11.776 12.032-20.224 23.808-18.688 11.776 1.28 20.224 12.032 18.688 23.808-9.472 81.408 47.616 155.136 127.232 164.352 11.776 1.28 20.224 12.032 18.688 23.808C646.912 516.608 637.696 524.544 626.944 524.544z" fill="#ffffff" /></svg>