<?xml version="1.0" standalone="no"?><!DOCTYPE svg PUBLIC "-//W3C//DTD SVG 1.1//EN" "http://www.w3.org/Graphics/SVG/1.1/DTD/svg11.dtd"><svg class="icon" width="16px" height="15.06px" viewBox="0 0 1088 1024" version="1.1" xmlns="http://www.w3.org/2000/svg"><path d="M899.808 676.288c-69.024 0-125.44 36.928-151.68 94.304l-333.44-141.952c19.456-30.112 30.144-67.072 30.144-106.912a201.6 201.6 0 0 0-5.824-48.64l212.896-165.216c28.192 21.376 64.16 34.016 104 34.016 96.256 0 168.192-71.936 168.192-167.2 0-95.264-71.936-167.2-168.16-167.2-96.256 0-167.232 71.936-167.232 167.2 0 24.32 4.864 46.656 12.64 66.08l-196.352 150.72c-38.88-58.368-103.04-99.2-175.968-99.2A215.328 215.328 0 0 0 13.216 508.16a215.328 215.328 0 0 0 215.808 215.808c44.736 0 86.528-11.68 120.544-33.056l383.04 163.296c4.832 90.4 74.848 157.504 167.2 157.504 96.224 0 167.2-71.936 167.2-167.232 0-95.264-71.936-168.16-167.2-168.16zM755.936 77.472c47.616 0 96.224 35.968 96.224 96.224 0 60.288-35.968 96.256-96.224 96.256-60.288 0-96.256-47.648-96.256-96.256s48.608-96.224 96.256-96.224zM229.024 652c-71.936 0-132.192-60.288-132.192-132.224 0-71.936 60.256-132.192 132.192-132.192s132.224 60.256 132.224 132.192c-0.96 71.936-60.288 132.224-132.224 132.224z m670.784 287.744c-60.288 0-96.256-35.968-96.256-96.256 0-60.256 47.648-96.224 96.256-96.224s96.224 35.968 96.224 96.224c-0.96 60.288-36.928 96.256-96.224 96.256z" fill="#ffffff" /></svg>