<?xml version="1.0" standalone="no"?><!DOCTYPE svg PUBLIC "-//W3C//DTD SVG 1.1//EN" "http://www.w3.org/Graphics/SVG/1.1/DTD/svg11.dtd"><svg class="icon" width="16px" height="15.89px" viewBox="0 0 1031 1024" version="1.1" xmlns="http://www.w3.org/2000/svg"><path d="M890.092308 0H133.907692C55.138462 0 0 63.015385 0 133.907692v527.753846c0 70.892308 63.015385 133.907692 133.907692 133.907693h401.723077l204.8 212.676923c7.876923 7.876923 15.753846 15.753846 31.507693 15.753846 7.876923 0 23.630769-7.876923 31.507692-15.753846 15.753846-15.753846 15.753846-47.261538 0-63.015385L590.769231 732.553846c-15.753846-15.753846-31.507692-23.630769-47.261539-23.630769H133.907692c-23.630769 0-47.261538-15.753846-47.261538-39.384615V133.907692c0-23.630769 15.753846-47.261538 47.261538-47.261538h764.061539c23.630769 0 47.261538 23.630769 47.261538 47.261538v527.753846c0 23.630769-15.753846 47.261538-47.261538 47.261539h-102.4c-23.630769 0-47.261538 23.630769-47.261539 47.261538s15.753846 47.261538 47.261539 47.261539h102.4c70.892308 0 133.907692-63.015385 133.907692-133.907692V133.907692C1024 63.015385 960.984615 0 890.092308 0z" fill="#ffffff" /></svg>