<?xml version="1.0" standalone="no"?><!DOCTYPE svg PUBLIC "-//W3C//DTD SVG 1.1//EN" "http://www.w3.org/Graphics/SVG/1.1/DTD/svg11.dtd"><svg class="icon" width="32px" height="32.00px" viewBox="0 0 1024 1024" version="1.1" xmlns="http://www.w3.org/2000/svg"><path d="M511.715 4.489C230.546 4.489 2.62 232.415 2.62 513.585c0 281.156 227.926 509.094 509.095 509.094 281.162 0 509.095-227.938 509.095-509.094 0-281.17-227.933-509.096-509.095-509.096z m-0.284 962.535c-251.048 0-454.56-203.519-454.56-454.566 0-251.036 203.512-454.554 454.56-454.554S965.99 261.423 965.99 512.458c0 251.047-203.511 454.566-454.559 454.566z m155.544-692.583c-9.142-0.049-17.19 4.477-22.013 11.423l-248.703 204.24a26.27 26.27 0 0 0-5.878 4.469c-10.281 10.393-10.281 27.231 0 37.611l0.464 0.377c0.041 0.041 0.078 0.085 0.119 0.126a26.8 26.8 0 0 0 4.697 3.778L645.809 739.3c4.934 6.635 12.816 10.96 21.677 10.999 0.539 0.003 1.073-0.014 1.604-0.041a26.082 26.082 0 0 0 17.872-7.769c0.429-0.433 0.832-0.882 1.225-1.337 3.832-4.329 6.232-9.908 6.448-16.115 0.033-0.657 0.036-1.315 0.022-1.973l-0.226-421.591c-0.078-14.847-12.606-26.953-27.456-27.032zM451.557 513.995l188.697-154.957 0.17 308.093-188.867-153.136z m-96.826-211.872c-14.854-0.08-26.833 11.906-26.754 26.754l0.232 367.439c0.073 14.861 12.178 26.966 27.032 27.031 14.849 0.08 27.251-11.468 27.179-26.316l-0.108-171.444-0.124-196.431c-0.079-14.848-12.608-26.954-27.457-27.033z" fill="#ffffff" /></svg>