<?xml version="1.0" standalone="no"?><!DOCTYPE svg PUBLIC "-//W3C//DTD SVG 1.1//EN" "http://www.w3.org/Graphics/SVG/1.1/DTD/svg11.dtd"><svg class="icon" width="32px" height="32.00px" viewBox="0 0 1024 1024" version="1.1" xmlns="http://www.w3.org/2000/svg"><path d="M512.284672 1019.510784c281.168896 0 509.094912-227.926016 509.094912-509.095936 0-281.15558399-227.926016-509.093888-509.094912-509.093888-281.161728 0-509.094912 227.938304-509.094912 509.093888C3.18976 791.584768 231.122944 1019.510784 512.284672 1019.510784zM512.569344 56.976384c251.047936 0 454.559744 203.518976 454.559744 454.565888 0 251.035648-203.511808 454.5536-454.559744 454.5536s-454.559744-203.518976-454.559744-454.5536C58.0096 260.49536 261.521408 56.976384 512.569344 56.976384zM357.024768 749.558784c9.142272 0.049152 17.189888-4.476928 22.01292799-11.42272L627.740672 533.89619201c2.107392-1.1776 4.09087999-2.6624 5.878784-4.46873601 10.28096-10.3936 10.28096-27.231232 0-37.61152l-0.464896-0.376832c-0.04096-0.04096-0.077824-0.084992-0.118784-0.125952-1.451008-1.466368-3.03001601-2.719744-4.697088-3.77856L378.190848 284.699648c-4.933632-6.634496-12.81536-10.959872-21.677056-10.998784-0.538624-0.003072-1.073152 0.014336-1.603584 0.04096-6.489088 0.182272-12.921856 2.766848-17.871872 7.769088-0.429056 0.433152-0.832512 0.881664-1.225728 1.337344-3.831808 4.328448-6.23206401 9.908224-6.448128 16.114688-0.032768 0.657408-0.03584 1.314816-0.021504 1.973248l0.226304 421.59104C329.647104 737.374208 342.17472 749.47993601 357.024768 749.558784zM572.442624 510.005248L383.746048 664.962048l-0.169984-308.092928L572.442624 510.005248zM669.268992 721.876992c14.854144 0.079872 26.832896-11.906048 26.754048-26.754048l-0.232448-367.438848c-0.072704-14.861312-12.177408-26.966016-27.031552-27.031552-14.849024-0.079872-27.250688 11.4688-27.179008 26.3168l0.232448 367.87507201C641.891328 709.692416 654.419968 721.798144 669.268992 721.876992z" fill="#ffffff" /></svg>