<?xml version="1.0" standalone="no"?><!DOCTYPE svg PUBLIC "-//W3C//DTD SVG 1.1//EN" "http://www.w3.org/Graphics/SVG/1.1/DTD/svg11.dtd"><svg class="icon" width="16px" height="16.00px" viewBox="0 0 1024 1024" version="1.1" xmlns="http://www.w3.org/2000/svg"><path d="M512 1024C230.4 1024 0 793.6 0 512S230.4 0 512 0s512 230.4 512 512-230.4 512-512 512z m0-64c249.6 0 448-198.4 448-448S761.6 64 512 64 64 262.4 64 512s198.4 448 448 448z m0 0" fill="#ffffff" /><path d="M303 749.6c-15.8 0-28.7-12.9-28.7-28.7 0-15.8 12.9-28.7 28.7-28.7h418c15.8 0 28.7 12.9 28.7 28.7 0 15.8-12.9 28.7-28.7 28.7H303z m209-95.9c-7.5 0-14.9-3.1-20.2-8.4L344 497.4c-10.7-11.1-10.6-29.1 0.4-40.1 5.4-5.4 12.6-8.4 20.3-8.4 7.5 0 14.5 2.9 19.9 8l88.3 88.2c1.2 1.2 2.8 1.8 4.4 1.8 0.8 0 1.6-0.2 2.4-0.5 2.3-1 3.8-3.2 3.8-5.7V303c0-15.8 12.9-28.7 28.7-28.7 15.8 0 28.7 12.9 28.7 28.7v237.8c0 2.5 1.5 4.7 3.8 5.7 0.8 0.3 1.6 0.5 2.4 0.5 1.6 0 3.2-0.6 4.4-1.8l88.3-88.3c5.3-5.1 12.4-8 19.8-8 7.7 0 14.9 3 20.3 8.4 11 11 11.1 29 0.3 40.2L532.3 645.2c-5.4 5.4-12.7 8.5-20.3 8.5z" fill="#ffffff" /></svg>