<?xml version="1.0" standalone="no"?><!DOCTYPE svg PUBLIC "-//W3C//DTD SVG 1.1//EN" "http://www.w3.org/Graphics/SVG/1.1/DTD/svg11.dtd"><svg class="icon" width="16px" height="14.02px" viewBox="0 0 1169 1024" version="1.1" xmlns="http://www.w3.org/2000/svg"><path d="M1066.667 102.4C930.133-25.6 725.333-34.133 588.8 93.867 443.733-34.133 238.933-25.6 102.4 102.4c-136.533 136.533-136.533 349.867 0 486.4l401.067 401.067c42.666 42.666 110.933 42.666 153.6 0L1058.133 588.8c145.067-128 145.067-349.867 8.534-486.4z m-51.2 435.2L614.4 938.667c-17.067 17.066-34.133 17.066-51.2 0L153.6 537.6c-110.933-102.4-110.933-281.6 0-384 102.4-102.4 273.067-102.4 384-8.533l51.2 42.666 51.2-42.666c110.933-102.4 273.067-93.867 384 8.533 93.867 110.933 93.867 281.6-8.533 384z" fill="#ffffff" /></svg>