<?xml version="1.0" standalone="no"?><!DOCTYPE svg PUBLIC "-//W3C//DTD SVG 1.1//EN" "http://www.w3.org/Graphics/SVG/1.1/DTD/svg11.dtd"><svg class="icon" width="32px" height="32.00px" viewBox="0 0 1024 1024" version="1.1" xmlns="http://www.w3.org/2000/svg"><path d="M944.053156 163.295681L794.365449 10.20598c-10.20598-13.607973-30.61794-13.607973-44.225914 0-10.20598 13.607973-10.20598 30.61794 0 44.225914l98.657807 98.657807H375.920266c-166.697674 0-302.777409 136.079734-302.777409 306.179402 0 17.009967 13.607973 30.61794 30.61794 30.61794s30.61794-13.607973 30.617941-30.61794c0-136.079734 108.863787-244.943522 241.541528-244.943522h479.681063l-112.265781 115.667774c-10.20598 10.20598-10.20598 30.61794 0 44.225914s30.61794 13.607973 44.225914 0l156.491694-159.893688c6.803987-10.20598 10.20598-17.009967 10.20598-23.813953 0-10.20598 0-20.41196-10.20598-27.215947zM164.996678 853.900332l112.26578 115.667774c10.20598 10.20598 10.20598 30.61794 0 44.225914s-30.61794 13.607973-44.225913 0L79.946844 850.498339c-10.20598-10.20598-10.20598-23.813953-6.803987-34.019934 0-6.803987 3.401993-10.20598 6.803987-17.009966L229.634551 646.378738c10.20598-10.20598 30.61794-10.20598 44.225914 0 10.20598 13.607973 10.20598 30.61794 0 44.225913l-98.657807 98.657807h442.259136c132.677741 0 241.541528-108.863787 241.541528-244.943521 0-17.009967 13.607973-30.61794 30.61794-30.61794s30.61794 13.607973 30.617941 30.61794c0 170.099668-136.079734 306.179402-302.777409 306.179402l-452.465116 3.401993z" fill="#ffffff" /></svg>