<?xml version="1.0" standalone="no"?><!DOCTYPE svg PUBLIC "-//W3C//DTD SVG 1.1//EN" "http://www.w3.org/Graphics/SVG/1.1/DTD/svg11.dtd"><svg class="icon" width="48px" height="48.00px" viewBox="0 0 1024 1024" version="1.1" xmlns="http://www.w3.org/2000/svg"><path d="M512 1024C228.267 1024 0 795.733 0 512S228.267 0 512 0s512 228.267 512 512-228.267 512-512 512z m0-42.667c260.267 0 469.333-209.066 469.333-469.333S772.267 42.667 512 42.667 42.667 251.733 42.667 512 251.733 981.333 512 981.333zM405.333 298.667c12.8 0 21.334 8.533 21.334 21.333v384c0 12.8-8.534 21.333-21.334 21.333S384 716.8 384 704V320c0-12.8 8.533-21.333 21.333-21.333z m213.334 0c12.8 0 21.333 8.533 21.333 21.333v384c0 12.8-8.533 21.333-21.333 21.333S597.333 716.8 597.333 704V320c0-12.8 8.534-21.333 21.334-21.333z" fill="#ffffff" /></svg>