<?xml version="1.0" standalone="no"?><!DOCTYPE svg PUBLIC "-//W3C//DTD SVG 1.1//EN" "http://www.w3.org/Graphics/SVG/1.1/DTD/svg11.dtd"><svg class="icon" width="16px" height="16.00px" viewBox="0 0 1024 1024" version="1.1" xmlns="http://www.w3.org/2000/svg"><path d="M0 0h1024v1024H0z" fill="#2c2c2c" fill-opacity="0" /><path d="M619.2 876.266667l-83.2 55.466666a42.72 42.72 0 0 1-47.466667 0L405.333333 876.266667c-160-106.666667-256-286.4-256-478.933334V213.333333c0-19.2 12.8-36.266667 31.466667-41.066666l320.533333-85.333334c6.933333-2.133333 14.933333-2.133333 21.866667 0l320 85.333334c18.666667 4.8 31.466667 21.866667 31.466667 41.066666v183.466667c0.533333 192.533333-95.466667 372.266667-255.466667 479.466667z m-47.466667-70.933334c136.533333-91.2 218.133333-244.266667 218.133334-408V245.866667l-277.333334-74.133334L234.666667 245.866667v150.933333c0 163.733333 82.133333 317.333333 218.133333 408l59.2 39.466667 59.733333-38.933334zM645.333333 349.333333c16.533333-17.066667 43.2-17.6 60.266667-1.066666 17.066667 16.533333 17.6 43.2 1.066667 60.266666l-190.4 197.866667c-16.533333 17.066667-44.266667 17.6-60.8 0.533333L342.933333 493.866667c-16.533333-16.533333-16.533333-43.733333 0-60.266667 16.533333-16.533333 43.733333-16.533333 60.266667 0L485.333333 515.733333l160-166.4z" fill="#2c2c2c" /></svg>