<?xml version="1.0" standalone="no"?><!DOCTYPE svg PUBLIC "-//W3C//DTD SVG 1.1//EN" "http://www.w3.org/Graphics/SVG/1.1/DTD/svg11.dtd"><svg class="icon" width="16px" height="16.00px" viewBox="0 0 1024 1024" version="1.1" xmlns="http://www.w3.org/2000/svg"><path d="M456.161882 211.666824V137.697882h-120.470588a45.176471 45.176471 0 0 1 0-90.352941h331.173647a45.176471 45.176471 0 1 1 0 90.352941H546.514824v73.065412a400.203294 400.203294 0 1 1-90.352942 0.90353z m49.392942 706.921411a309.790118 309.790118 0 1 0 0-619.580235 309.790118 309.790118 0 0 0 0 619.580235z m161.310117-307.621647a30.117647 30.117647 0 0 1 0 60.235294H473.268706a30.117647 30.117647 0 0 1-30.117647-30.117647V447.488a30.117647 30.117647 0 1 1 60.235294 0v163.478588h163.478588z" /></svg>