<?xml version="1.0" standalone="no"?><!DOCTYPE svg PUBLIC "-//W3C//DTD SVG 1.1//EN" "http://www.w3.org/Graphics/SVG/1.1/DTD/svg11.dtd"><svg class="icon" width="16px" height="16.00px" viewBox="0 0 1024 1024" version="1.1" xmlns="http://www.w3.org/2000/svg"><path d="M512 128c-212.1 0-384 171.9-384 384s171.9 384 384 384 384-171.9 384-384-171.9-384-384-384z m0 704c-43.2 0-85.1-8.5-124.5-25.1-38.1-16.1-72.3-39.2-101.7-68.6-29.4-29.4-52.5-63.6-68.6-101.7C200.5 597.1 192 555.2 192 512s8.5-85.1 25.1-124.5c12-28.3 27.7-54.4 47.1-78l450.3 450.3c-23.6 19.4-49.7 35.1-78 47.1C597.1 823.5 555.2 832 512 832z m247.8-117.5L309.5 264.2c23.6-19.4 49.7-35.1 78-47.1C426.9 200.5 468.8 192 512 192s85.1 8.5 124.5 25.1c38.1 16.1 72.3 39.2 101.7 68.6s52.5 63.6 68.6 101.7C823.5 426.9 832 468.8 832 512s-8.5 85.1-25.1 124.5c-12 28.3-27.8 54.4-47.1 78z" /></svg>