<?xml version="1.0" standalone="no"?><!DOCTYPE svg PUBLIC "-//W3C//DTD SVG 1.1//EN" "http://www.w3.org/Graphics/SVG/1.1/DTD/svg11.dtd"><svg class="icon" width="16px" height="16.00px" viewBox="0 0 1024 1024" version="1.1" xmlns="http://www.w3.org/2000/svg"><path d="M388.655 470.11h246.69V716.8h-246.69z"  /><path d="M807.564 269.964L656.29 139.636c-16.291-13.963-39.564-23.272-62.836-23.272H279.273c-53.528 0-95.418 41.89-95.418 95.418v602.763c0 51.2 41.89 95.419 95.418 95.419h465.454c51.2 0 95.418-41.891 95.418-95.419V342.11c0-27.927-11.636-53.527-32.581-72.145zM728.436 733.09c0 41.89-34.909 76.8-76.8 76.8H372.364c-41.891 0-76.8-34.91-76.8-76.8v-281.6c0-41.891 34.909-76.8 76.8-76.8h279.272c41.891 0 76.8 34.909 76.8 76.8v281.6z"  /></svg>