<?xml version="1.0" standalone="no"?><!DOCTYPE svg PUBLIC "-//W3C//DTD SVG 1.1//EN" "http://www.w3.org/Graphics/SVG/1.1/DTD/svg11.dtd"><svg class="icon" width="16px" height="16.00px" viewBox="0 0 1024 1024" version="1.1" xmlns="http://www.w3.org/2000/svg"><path d="M512 857.6c-166.4 0-298.666667-132.266667-298.666667-298.666667s132.266667-298.666667 298.666667-298.666666 298.666667 132.266667 298.666667 298.666666-132.266667 298.666667-298.666667 298.666667z m0-682.666667c-213.333333 0-384 170.666667-384 384s170.666667 384 384 384 384-170.666667 384-384-170.666667-384-384-384z m21.333333 170.666667H469.333333v256L674.133333 725.333333l34.133334-51.2-170.666667-102.4v-226.133333z m-196.266666-196.266667L281.6 85.333333 85.333333 251.733333l55.466667 64 196.266667-166.4zM938.666667 251.733333L742.4 85.333333l-55.466667 64 196.266667 166.4 55.466667-64z" fill="#2c2c2c" /></svg>