<?xml version="1.0" standalone="no"?><!DOCTYPE svg PUBLIC "-//W3C//DTD SVG 1.1//EN" "http://www.w3.org/Graphics/SVG/1.1/DTD/svg11.dtd"><svg class="icon" width="16px" height="16.00px" viewBox="0 0 1024 1024" version="1.1" xmlns="http://www.w3.org/2000/svg"><path d="M868.002087 865.667925 155.997913 865.667925c-24.550139 0-44.452421-19.902282-44.452421-44.452421L111.545492 331.707774c0-24.551162 19.902282-44.452421 44.452421-44.452421 24.550139 0 44.452421 19.902282 44.452421 44.452421l0 445.054285 623.098307 0L823.548642 331.707774c0-24.551162 19.902282-44.452421 44.452421-44.452421 24.550139 0 44.452421 19.902282 44.452421 44.452421l0 489.506706C912.454508 845.76462 892.552226 865.667925 868.002087 865.667925z"  /><path d="M626.408703 465.213417l-69.904093 0L556.50461 137.590682c0-15.670911-11.612479-28.375258-25.936719-28.375258l-37.131689 0c-14.32424 0-25.935696 12.704346-25.935696 28.375258l0 327.622736-69.90921 0c-23.547299 0-35.33988 28.469402-18.688641 45.12064l114.408703 114.405633c10.321066 10.321066 27.056216 10.321066 37.378306 0l114.408703-114.405633C661.748582 493.682819 649.956002 465.213417 626.408703 465.213417z"  /></svg>