<?xml version="1.0" standalone="no"?><!DOCTYPE svg PUBLIC "-//W3C//DTD SVG 1.1//EN" "http://www.w3.org/Graphics/SVG/1.1/DTD/svg11.dtd"><svg class="icon" width="16px" height="16.00px" viewBox="0 0 1024 1024" version="1.1" xmlns="http://www.w3.org/2000/svg"><path d="M657.066667 874.666667H352c-59.733333 0-106.666667-46.933333-106.666667-106.666667v-6.4l12.8-247.466667c-2.133333 2.133333-6.4 4.266667-8.533333 4.266667-14.933333 6.4-32 6.4-46.933333 0-6.4-2.133333-12.8-6.4-19.2-12.8l-83.2-81.066667c-25.6-23.466667-25.6-64-2.133334-89.6l145.066667-160c19.2-21.333333 44.8-34.133333 74.666667-34.133333 27.733333-2.133333 55.466667 8.533333 76.8 27.733333 2.133333 0 2.133333 2.133333 4.266666 4.266667 25.6 25.6 59.733333 36.266667 106.666667 36.266667s83.2-12.8 106.666667-36.266667c19.2-19.2 46.933333-32 74.666666-32 27.733333 0 55.466667 10.666667 74.666667 32l4.266667 4.266667 145.066666 160c23.466667 25.6 21.333333 64-2.133333 89.6l-83.2 81.066666c-10.666667 10.666667-25.6 17.066667-42.666667 17.066667-10.666667 0-21.333333-4.266667-32-8.533333l12.8 247.466666c2.133333 59.733333-42.666667 108.8-100.266666 113.066667-4.266667-2.133333-4.266667-2.133333-6.4-2.133333zM270.933333 452.266667c19.2 0 32 14.933333 32 32L288 768c0 36.266667 27.733333 64 64 64H661.333333c36.266667-2.133333 61.866667-32 59.733334-68.266667l-14.933334-279.466666c0-12.8 6.4-25.6 19.2-29.866667 8.533333-2.133333 17.066667-2.133333 23.466667 0 8.533333 4.266667 12.8 8.533333 17.066667 17.066667 0 2.133333 2.133333 4.266667 4.266666 6.4 4.266667 4.266667 8.533333 6.4 12.8 6.4 4.266667 0 8.533333-2.133333 12.8-4.266667l83.2-81.066667c8.533333-8.533333 8.533333-21.333333 0-29.866666l-147.2-162.133334c-12.8-12.8-27.733333-19.2-44.8-19.2s-34.133333 6.4-44.8 19.2c-32 32-78.933333 49.066667-136.533333 49.066667s-104.533333-17.066667-136.533333-49.066667l-2.133334-2.133333c-12.8-10.666667-29.866667-17.066667-46.933333-17.066667-17.066667 0-32 8.533333-44.8 21.333334L128 366.933333c-8.533333 8.533333-6.4 21.333333 0 29.866667l83.2 81.066667c2.133333 2.133333 4.266667 2.133333 6.4 4.266666 4.266667 2.133333 8.533333 2.133333 12.8 0 4.266667-2.133333 8.533333-4.266667 10.666667-10.666666 4.266667-10.666667 17.066667-19.2 29.866666-19.2zM725.333333 488.533333c2.133333 0 2.133333 0 0 0 2.133333 0 2.133333 0 0 0z m23.466667-6.4z" fill="#333333" /></svg>