<?xml version="1.0" standalone="no"?><!DOCTYPE svg PUBLIC "-//W3C//DTD SVG 1.1//EN" "http://www.w3.org/Graphics/SVG/1.1/DTD/svg11.dtd"><svg class="icon" width="16px" height="16.00px" viewBox="0 0 1024 1024" version="1.1" xmlns="http://www.w3.org/2000/svg"><path d="M729.074 961.131H414.096c-20.687 0-37.453-17.069-37.453-38.104 0-21.064 16.738-38.104 37.453-38.104h314.978c2.272 0 5.651-0.496 9.22-2.921 3.382-2.317 5.112-5.432 5.816-7.61l135.962-314.645c8.655-19.658 6.79-42.115-4.676-60.064-11.52-17.963-30.962-28.688-52.001-28.688l-197.779-0.054c-16.577 0-31.045-10.988-35.803-27.103-4.651-16.089 1.46-33.46 15.25-42.695 32.126-21.588 63.331-140.283 37.642-219.083-14.44-44.582-37.642-43.259-47.674-42.694l-10.95 0.096c-14.658 0-28.449 5.805-38.888 16.364-10.33 10.588-16.008 24.65-16.008 39.648v51.972c0 60.561-23.23 117.509-65.197 160.286-37.182 37.994-85.288 60.836-137.045 65.496v413.845c0 19.8-7.517 38.326-21.255 52.277-13.765 14.035-32.07 21.782-51.325 21.782h-120.66c-18.686 0-36.236-7.444-49.324-20.871-13.169-13.426-20.335-31.294-20.335-50.208V475.82c0-20.72 7.896-40.337 22.31-55.02 14.52-14.71 33.64-22.76 54.029-22.76h166.494c39.48 0 76.472-15.701 104.434-44.128 27.745-28.454 43.186-66.228 43.186-106.467v-51.972c0-35.388 13.439-68.585 37.966-93.453 24.58-24.995 57.056-38.738 91.67-38.738h8.76c55.544-3.226 100 31.197 120.77 94.776 21.47 66.186 15.44 166.008-15.199 236.77h124.957c46.377 0.082 89.265 23.711 114.52 63.29 25.34 39.649 29.314 89.111 10.6 132.288l-135.314 313.24c-6.166 15.91-17.632 30.632-32.83 41.302-15.304 10.612-33.043 16.183-51.323 16.183z m-590.34-76.18h113.464V474.123H140.383l-1.65 410.828z" fill="#da231b" /></svg>