<?xml version="1.0" standalone="no"?><!DOCTYPE svg PUBLIC "-//W3C//DTD SVG 1.1//EN" "http://www.w3.org/Graphics/SVG/1.1/DTD/svg11.dtd"><svg class="icon" width="32px" height="30.94px" viewBox="0 0 1059 1024" version="1.1" xmlns="http://www.w3.org/2000/svg"><path d="M891.811074 682.147604a162.435057 162.435057 0 0 0-151.881096 95.945101L405.94508 633.407492a203.019835 203.019835 0 0 0 30.222707-108.993635 208.968431 208.968431 0 0 0-5.852651-49.507672L643.505151 306.426587a169.343104 169.343104 0 0 0 104.19638 34.636181 170.494445 170.494445 0 1 0-167.424202-170.3985 184.214595 184.214595 0 0 0 12.664754 67.161571l-196.687458 153.512162a213.573796 213.573796 0 0 0-176.251151-101.030191 220.002118 220.002118 0 0 0 0 440.004235 223.648031 223.648031 0 0 0 120.698937-33.676731l383.780406 166.464751a167.712037 167.712037 0 1 0 167.424202-181.336242zM747.893422 71.744868a95.945101 95.945101 0 0 1 95.945101 98.055894 89.324889 89.324889 0 0 1-95.945101 98.055894 95.945101 95.945101 0 0 1-95.945102-98.055894A104.580161 104.580161 0 0 1 747.701531 71.744868z m-527.698058 585.265119a134.323142 134.323142 0 1 1 132.40424-134.323142 134.994758 134.994758 0 0 1-132.40424 134.323142z m671.61571 293.304175a89.324889 89.324889 0 0 1-95.945102-98.055894 96.328882 96.328882 0 1 1 192.753709 0 90.28434 90.28434 0 0 1-96.808607 98.439675z" fill="#fff" /></svg>