<?xml version="1.0" standalone="no"?><!DOCTYPE svg PUBLIC "-//W3C//DTD SVG 1.1//EN" "http://www.w3.org/Graphics/SVG/1.1/DTD/svg11.dtd"><svg class="icon" width="0.1px" height="0.1.00px" viewBox="0 0 1024 1024" version="1.1" xmlns="http://www.w3.org/2000/svg"><path d="M185.8 940.1c-5 0-10-0.4-15-1.2-45.1-6.2-51.2-71.6-52-84.7V185c-0.5-10.5-2-73.9 36.3-100.5 14.3-9.9 39.3-18.3 77.2-1.5l1.1 0.5 82.4 41.2 554.9 296.2c18.1 7.9 47.9 31.6 51.6 74.6 4.8 41.5-40.4 71.5-45.6 74.8l-1.1 0.7-596 337.3c-8.1 5.3-50.9 31.8-93.8 31.8z m-6.6-50.5c25.4 3.8 62.4-16.2 73.5-23.5l0.8-0.5 0.8-0.5 596.2-337.3c10.7-7.1 23-20.7 22.3-26.7l-0.1-1c-2.1-24.8-21.7-33.4-21.9-33.4l-1.3-0.5L292.6 169l-81-40.5c-7.7-3.3-21-7.8-28-2.9-12.4 8.6-15.8 41.5-14.9 57.3V852c1.2 14.8 6.2 32.9 10.5 37.6z" fill="#ffffff" /></svg>