<?xml version="1.0" standalone="no"?><!DOCTYPE svg PUBLIC "-//W3C//DTD SVG 1.1//EN" "http://www.w3.org/Graphics/SVG/1.1/DTD/svg11.dtd"><svg class="icon" width="16px" height="14.84px" viewBox="0 0 1104 1024" version="1.1" xmlns="http://www.w3.org/2000/svg"><path d="M1006.514364 642.78192l-294.97786 294.939965c-0.454745 0.49264-0.757908 0.985281-1.250549 1.477921-0.454745 0.454745-0.947385 0.757908-1.440025 1.212653l-6.290638 6.290638c-0.90949 0.90949-2.235829 1.136862-3.296901 1.856875-11.406518 8.071722-22.244605 10.951773-26.867844 6.328533l-169.847222-169.847221c-6.139056-6.139056 0.871594-23.116199 15.6887-37.933304 14.817105-14.779209 31.794248-21.827755 37.895408-15.688699l127.252782 127.252782 269.512146-269.512146c10.421237-10.421237 30.884758-6.859069 45.663967 7.92014 14.817105 14.817105 18.379273 35.280625 7.958036 45.701863zM739.654897 682.117354H209.119177v-75.790817h530.53572v75.790817zM209.119177 227.372451h530.53572v75.790817H209.119177V227.372451z m530.53572 265.26786H209.119177v-75.790817h530.53572v75.790817z m113.875703-381.758346H95.129788v760.9777H550.177854v74.653955H57.423856a37.516454 37.516454 0 0 1-37.668036-37.326978V73.554988A37.516454 37.516454 0 0 1 57.423856 36.228011H891.236531a37.516454 37.516454 0 0 1 37.668036 37.326977V568.431128h-75.373967V110.881965z" fill="#ffffff" /></svg>