<?xml version="1.0" standalone="no"?><!DOCTYPE svg PUBLIC "-//W3C//DTD SVG 1.1//EN" "http://www.w3.org/Graphics/SVG/1.1/DTD/svg11.dtd"><svg class="icon" width="16px" height="16.00px" viewBox="0 0 1024 1024" version="1.1" xmlns="http://www.w3.org/2000/svg"><path d="M770.759 631.481c-50.197 0-91.202 26.866-110.291 68.578L417.97 596.84c14.14-21.917 21.917-48.782 21.917-77.77 0-12.018-1.414-24.037-4.242-35.349l154.83-120.188c20.504 15.554 46.662 24.745 75.649 24.745 69.992 0 122.31-52.318 122.31-121.603s-52.318-121.602-122.31-121.602-121.602 52.317-121.602 121.602c0 17.675 3.535 33.936 9.19 48.076L410.9 424.333c-28.28-42.42-74.94-72.113-127.965-72.113-86.96 0-156.952 69.992-156.952 156.952s69.992 156.952 156.952 156.952c32.522 0 62.922-8.484 87.667-24.038l278.554 118.775c3.535 65.75 54.438 114.532 121.603 114.532 69.992 0 121.602-52.317 121.602-121.602s-52.317-122.31-121.602-122.31zM666.124 195.975c34.642 0 69.992 26.159 69.992 69.992s-26.159 69.992-69.992 69.992-69.992-34.642-69.992-69.992 35.35-69.992 69.992-69.992zM282.935 613.807c-52.317 0-96.15-43.834-96.15-96.151s43.833-96.15 96.15-96.15 96.15 43.833 96.15 96.15c-0.706 52.317-43.833 96.15-96.15 96.15zM770.76 823.076c-43.834 0-69.993-26.159-69.993-69.992s34.643-69.992 69.993-69.992 69.992 26.158 69.992 69.992c-0.707 43.833-26.866 69.992-69.992 69.992z" fill="#ffffff" /></svg>