<?xml version="1.0" standalone="no"?><!DOCTYPE svg PUBLIC "-//W3C//DTD SVG 1.1//EN" "http://www.w3.org/Graphics/SVG/1.1/DTD/svg11.dtd"><svg class="icon" width="16px" height="16.00px" viewBox="0 0 1024 1024" version="1.1" xmlns="http://www.w3.org/2000/svg"><path d="M737.792 910.694a57.242 57.242 0 0 1-26.726-6.656l-197.53-103.833-197.53 103.833a57.242 57.242 0 0 1-83.046-60.364l37.683-220.16-159.795-155.546a57.293 57.293 0 0 1 31.744-97.69l220.928-32.05 98.662-199.988a56.832 56.832 0 0 1 51.2-31.898 56.934 56.934 0 0 1 51.2 31.898l98.765 200.14 220.826 32.052a57.293 57.293 0 0 1 32.307 97.536l-159.795 155.75 37.734 220.16A57.395 57.395 0 0 1 738.1 910.9zM159.846 430.08l155.29 151.398a57.242 57.242 0 0 1 16.435 50.688l-36.659 213.556 192-100.916a57.088 57.088 0 0 1 53.3 0L732.16 845.722l-36.66-213.76a57.344 57.344 0 0 1 16.436-50.688l155.34-151.194-214.63-31.18a57.293 57.293 0 0 1-43.11-31.335l-96-194.56-96 194.56a57.242 57.242 0 0 1-43.11 31.334z m715.674 1.024z m-365.722-265.83z" fill="#ffffff" /></svg>