<?xml version="1.0" standalone="no"?><!DOCTYPE svg PUBLIC "-//W3C//DTD SVG 1.1//EN" "http://www.w3.org/Graphics/SVG/1.1/DTD/svg11.dtd"><svg class="icon" width="16px" height="16.00px" viewBox="0 0 1024 1024" version="1.1" xmlns="http://www.w3.org/2000/svg"><path d="M737.792 910.6944a57.2416 57.2416 0 0 1-26.7264-6.656l-197.5296-103.8336-197.5296 103.8336a57.2416 57.2416 0 0 1-83.0464-60.3648l37.6832-220.16L110.848 467.968a57.2928 57.2928 0 0 1 31.744-97.6896L363.52 338.2272 462.1824 138.24a56.832 56.832 0 0 1 51.2-31.8976 56.9344 56.9344 0 0 1 51.2 31.8976l98.7648 200.1408 220.8256 32.0512A57.2928 57.2928 0 0 1 916.48 467.968l-159.7952 155.7504 37.7344 220.16a57.3952 57.3952 0 0 1-56.32 67.0208zM159.8464 430.08l155.2896 151.3984a57.2416 57.2416 0 0 1 16.4352 50.688l-36.6592 213.5552 192-100.9152a57.088 57.088 0 0 1 53.2992 0L732.16 845.7216l-36.6592-213.76a57.344 57.344 0 0 1 16.4352-50.688L867.2768 430.08l-214.6304-31.1808a57.2928 57.2928 0 0 1-43.1104-31.3344l-96-194.56-96 194.56a57.2416 57.2416 0 0 1-43.1104 31.3344z m715.6736 1.024zM509.7984 165.2736z" fill="#ffffff" /></svg>