<?xml version="1.0" standalone="no"?><!DOCTYPE svg PUBLIC "-//W3C//DTD SVG 1.1//EN" "http://www.w3.org/Graphics/SVG/1.1/DTD/svg11.dtd"><svg class="icon" width="16px" height="16.00px" viewBox="0 0 1024 1024" version="1.1" xmlns="http://www.w3.org/2000/svg"><path d="M932.352061 414.878727c-4.135408-12.406224-14.352298-21.893337-27.001782-25.055708l-235.110108-56.679415-126.738092-206.162252c-6.93289-11.189928-19.095855-18.001188-32.110227-18.001188-13.136002 0-25.298967 6.81126-32.110227 18.001188l-126.494833 206.040622-235.110108 56.679416c-12.771113 3.162371-22.988003 12.527854-27.001782 25.055707-4.135408 12.406224-1.337926 26.150374 7.176149 36.124005l156.902245 184.147286-18.730966 241.069961c-0.973037 13.014372 4.865186 25.663856 15.446966 33.326523 6.568001 4.743556 14.352298 7.176149 22.136595 7.176149 4.865186 0 9.730372-0.973037 14.352299-2.797481l223.555291-92.316903 223.555292 92.316903c4.621927 1.946074 9.487112 2.797482 14.352298 2.797481 7.905927 0 15.568595-2.432593 22.136596-7.176149 10.581779-7.662668 16.420002-20.312151 15.446965-33.326523l-18.730965-241.069961 156.902245-184.147286c8.514075-9.852001 11.189928-23.596152 7.176149-36.002375zM729.473809 622.500535l19.947262 256.638555L511.391852 780.862335l-237.90759 98.276755 19.947262-256.638555L126.434018 426.433543 376.747832 366.105238l134.765649-219.298254L646.279131 366.105238l250.313814 60.328305-167.119136 196.066992z m0 0" fill="#d81e06" /></svg>