<?xml version="1.0" standalone="no"?><!DOCTYPE svg PUBLIC "-//W3C//DTD SVG 1.1//EN" "http://www.w3.org/Graphics/SVG/1.1/DTD/svg11.dtd"><svg class="icon" width="16px" height="16.00px" viewBox="0 0 1024 1024" version="1.1" xmlns="http://www.w3.org/2000/svg"><path d="M434.7 657c-9.4-9.4-24.6-9.4-33.9 0s-9.4 24.6 0 33.9l33.9 33.9c9.4 9.4 24.6 9.4 33.9 0 9.4-9.4 9.4-24.6 0-33.9L434.7 657zM333.2 555.4c-9.4-9.4-24.6-9.4-33.9 0s-9.4 24.6 0 33.9l33.9 33.9c9.4 9.4 24.4 9.4 33.9 0 9.4-9.4 9.4-24.6 0-33.9l-33.9-33.9z"  /><path d="M949.1 315.7L906.4 273l-14.2-14.2-18.7-18.8c-3.2 6.7-7.4 13.2-12.9 18.7-5.6 5.6-12 9.7-18.7 12.9-25 11.8-55.7 7.7-76.3-12.9-20.6-20.6-24.8-51.3-12.9-76.3 3.2-6.7 7.4-13.2 12.9-18.7 5.6-5.6 12-9.7 18.7-12.9l-18.7-18.7-14.2-14.2L708.5 75c-55.8-55.8-147.2-55.8-203 0L74.9 505.6c-55.8 55.8-55.8 147.2 0 202.9l42.7 42.7 14.2 14.2 18.7 18.7c3.2-6.7 7.4-13.2 12.9-18.7 5.6-5.6 12-9.7 18.7-12.9 25-11.8 55.7-7.7 76.3 12.9s24.8 51.3 12.9 76.3c-3.2 6.7-7.4 13.2-12.9 18.7-5.6 5.6-12 9.7-18.7 12.9l18.7 18.7 14.2 14.2 42.7 42.7c55.8 55.8 147.2 55.8 202.9 0L949 518.5c55.9-55.7 55.9-147.1 0.1-202.8z m-34 169L588.7 811.1c-0.5-0.6-1-1.1-1.5-1.7l-33.9-33.9c-9.4-9.4-24.6-9.4-33.9 0s-9.4 24.6 0 33.9l33.9 33.9c0.5 0.5 1.1 1 1.7 1.5l-70.4 70.4c-17.9 17.9-41.9 27.9-67.6 27.9-25.7 0-49.7-9.9-67.6-27.9l-41.1-41.1c2.3-3.7 4.5-7.8 6.5-11.9 20.8-43.9 11.9-96.4-22.4-130.6-21.7-21.7-50.4-33.6-81-33.6-17.1 0-34.2 3.9-49.7 11.1-4.2 2-8.1 4.1-11.9 6.5l-41.1-41.1C90.9 656.8 81 632.8 81 607.1s9.9-49.7 27.9-67.6l70.4-70.4c0.5 0.6 1 1.2 1.6 1.8l33.9 33.9c9.4 9.4 24.6 9.4 33.9 0s9.4-24.6 0-33.9l-34-33.9c-0.6-0.6-1.2-1.1-1.8-1.6l326.5-326.5c18-17.9 42-27.8 67.6-27.8 25.7 0 49.7 9.9 67.6 27.9l41.1 41.1c-2.3 3.7-4.5 7.7-6.5 11.9-20.8 43.9-11.9 96.4 22.2 130.7 21.6 21.6 50.4 33.5 81 33.5 17.1 0 34.2-3.9 49.7-11.1 4.2-2 8.1-4.1 11.9-6.5l41.1 41.1c17.9 17.9 27.9 41.9 27.9 67.6-0.1 25.4-10 49.4-27.9 67.4z"  /></svg>