<?xml version="1.0" standalone="no"?><!DOCTYPE svg PUBLIC "-//W3C//DTD SVG 1.1//EN" "http://www.w3.org/Graphics/SVG/1.1/DTD/svg11.dtd"><svg class="icon" width="16px" height="16.00px" viewBox="0 0 1024 1024" version="1.1" xmlns="http://www.w3.org/2000/svg"><path d="M896.35739 415.483806V127.690194h-287.794636l107.116623 107.116623-108.319007 108.316961c-49.568952-34.997072-110.052488-55.56348-175.344541-55.56348-168.101579 0-304.374242 136.273686-304.374242 304.374242s136.273686 304.374242 304.374242 304.374243S736.390072 760.03612 736.390072 591.93454c0-61.631686-18.3356-118.972649-49.824779-166.901241L796.238135 315.365574l100.119255 100.118232zM432.015829 800.190655c-115.015523 0-208.256114-93.240591-208.256114-208.256115s93.240591-208.256114 208.256114-208.256114 208.256114 93.240591 208.256115 208.256114-93.240591 208.256114-208.256115 208.256115z" fill="#1296db" /></svg>