<?xml version="1.0" standalone="no"?><!DOCTYPE svg PUBLIC "-//W3C//DTD SVG 1.1//EN" "http://www.w3.org/Graphics/SVG/1.1/DTD/svg11.dtd"><svg class="icon" width="16px" height="16.00px" viewBox="0 0 1024 1024" version="1.1" xmlns="http://www.w3.org/2000/svg"><path d="M826.569697 197.042424C759.59596 130.19798 670.771717 93.349495 576.258586 93.349495s-183.466667 36.719192-250.311111 103.692929C259.10303 263.886869 222.254545 352.711111 222.254545 447.353535c0 84.428283 29.349495 164.331313 83.264647 228.072728L245.010101 735.935354l-101.624242-101.624243c-11.248485-11.248485-29.99596-10.860606-41.761617 0.905051-11.765657 11.765657-12.153535 30.513131-0.90505 41.761616L202.343434 778.60202l-91.668687 91.79798c-11.765657 11.765657-11.765657 30.90101 0 42.537374 11.765657 11.765657 30.90101 11.765657 42.537374 0L245.139394 821.010101l101.624242 101.624242c11.248485 11.248485 29.99596 10.860606 41.761617-0.90505 11.765657-11.765657 12.153535-30.513131 0.90505-41.761616L287.806061 778.343434l60.509091-60.509091c63.741414 53.915152 143.644444 83.264646 228.072727 83.264647 94.513131 0 183.337374-36.719192 250.311111-103.692929s103.692929-155.79798 103.692929-250.311112c-0.129293-94.513131-36.848485-183.337374-103.822222-250.052525zM576.258586 740.977778C414.383838 740.977778 282.634343 609.228283 282.634343 447.353535c0-162.00404 131.749495-293.753535 293.753536-293.753535S870.012121 285.349495 870.012121 447.353535c0 161.874747-131.749495 293.624242-293.753535 293.624243z m0 0" fill="#f16de1" /></svg>