<?xml version="1.0" standalone="no"?><!DOCTYPE svg PUBLIC "-//W3C//DTD SVG 1.1//EN" "http://www.w3.org/Graphics/SVG/1.1/DTD/svg11.dtd"><svg class="icon" width="16px" height="16.00px" viewBox="0 0 1024 1024" version="1.1" xmlns="http://www.w3.org/2000/svg"><path d="M949.433724 901.786541 742.473115 694.824909c56.635905-66.875107 90.937129-153.268756 90.937129-247.790526 0-212.048487-171.923628-383.973138-383.973138-383.973138S65.464991 234.985896 65.464991 447.034383s171.923628 383.973138 383.973138 383.973138c94.52177 0 180.915419-34.301224 247.790526-90.905406L904.189264 947.062723c14.015202 14.015202 35.485189 15.230889 47.997154 2.719948C964.664613 937.27173 963.448926 915.801742 949.433724 901.786541zM449.437106 767.011998c-176.722934 0-319.977615-143.253658-319.977615-319.977615s143.253658-319.977615 319.977615-319.977615 319.977615 143.253658 319.977615 319.977615S626.161063 767.011998 449.437106 767.011998z" fill="#8a8a8a" /></svg>