<?xml version="1.0" standalone="no"?><!DOCTYPE svg PUBLIC "-//W3C//DTD SVG 1.1//EN" "http://www.w3.org/Graphics/SVG/1.1/DTD/svg11.dtd"><svg class="icon" width="16px" height="16.00px" viewBox="0 0 1024 1024" version="1.1" xmlns="http://www.w3.org/2000/svg"><path d="M512 0C229.2224 0 0 229.2224 0 512s229.2224 512 512 512 512-229.2224 512-512S794.7776 0 512 0z m0 181.3504a202.6496 202.6496 0 1 1 0 405.2992 202.6496 202.6496 0 0 1 0-405.2992z m0 800c-145.9712 0-276.48-67.328-362.6496-172.9024 86.2208-96.3584 216.6272-157.7984 362.5984-157.7984 146.0224 0 276.48 61.44 362.7008 157.8496-86.2208 105.5744-216.6272 172.8512-362.6496 172.8512z" fill="#d81e06" /></svg>