<?xml version="1.0" standalone="no"?><!DOCTYPE svg PUBLIC "-//W3C//DTD SVG 1.1//EN" "http://www.w3.org/Graphics/SVG/1.1/DTD/svg11.dtd"><svg class="icon" width="32px" height="32.00px" viewBox="0 0 1024 1024" version="1.1" xmlns="http://www.w3.org/2000/svg"><path d="M434.6 261.4c-63-5.3-209.2 42.5-345.8 265.1 0 0-100.2 180.1 103.7 288.1 0 0 170.2 101.2 410.6 30.1 0 0 243.9-80.7 221.6-249.9 0 0-18.5-70.1-104.7-90.6 0 0-26.6-3.5-11.6-30.1 0 0 38.2-77.9-36.4-110 0 0-66.5-15.9-147.2 24.8 0 0-53.1 30.1-27.6-35.4-0.6-0.8 11.8-85.8-62.6-92.1z m242.9 365.3c0 92.1-118.9 193.3-264.4 193.3-171 0-264.4-74.6-264.4-167.5 0-92.1 134.8-180.9 281-180.9 145.8 0 247.8 63 247.8 155.1z m0 0" fill="#ffffff" /><path d="M530.2 658.8c-4.3 67.3-61.2 119.7-136.6 122.4-91.3 3.5-151.5-38.2-140.9-120.7 8.1-67.3 66.5-124.2 140.9-124.2 75.4 0.1 141.9 40.8 136.6 122.5z m-89.5-18c0-9.9-8.1-17.7-17.7-17.7s-17.7 8.1-17.7 17.7 8.1 17.7 17.7 17.7c9.6 1 17.7-6.8 17.7-17.7z m-47.8 42.8c0-24-22.3-43.5-47.1-40s-48.8 22.3-48.8 46c0 24 20.5 41.7 46 41.7 25.8 1.1 49.9-23.7 49.9-47.7z m279.2-449.5c4.3-1.8 8.1-2.5 12.4-3.5 4.3-0.8 8.9-1.8 14.2-2.5-15.2 1.8-2.5 0.8 0 0 3.5 0 7.1-0.8 11.6-0.8h22.3c4.3 0 8.1 0.8 12.4 0.8-11.6-1.8-3.5-0.8-0.8 0 2.8 0.8 5.3 0.8 8.9 1.8 8.9 1.8 17.7 4.3 26.6 8.1 2.5 0.8 4.3 1.8 7.1 2.5-8.9-3.5-0.8 0 0.8 0 5.3 2.5 10.6 5.3 16.7 8.9 4.3 2.5 9.9 6.1 14.2 8.9 2.5 1.8 4.3 3.5 7.1 5.3-7.1-5.3 0.8 0.8 1.8 1.8 9.9 8.1 18.5 16.7 27.6 26.6 0.8 0.8 7.1 8.9 0.8 0.8 1.8 1.8 2.5 4.3 4.3 6.1 2.5 4.3 5.3 8.9 8.1 12.4 2.5 4.3 4.3 8.9 6.1 13.4 3.5 8.1-2.5-8.1 0 0 0.8 2.5 1.8 5.3 3.5 8.9 2.5 8.1 4.3 16.7 6.1 25.8 0 1.8 0.8 4.3 0.8 6.1-1.8-11.6-0.8-4.3 0-1.8 0.8 4.3 0.8 8.9 0.8 14.2 0 7.1 0 15.2-0.8 22.3 0 3.5-0.8 7.1-0.8 10.6 1.8-14.2 0 0-0.8 2.5-1.8 9.9-4.3 18.5-7.1 27.6-1.8 5.3-8.1 18.5-0.8 2.5-8.1 17.7-5.3 39 13.4 49.6 15.9 8.9 41.7 5.3 49.6-13.4 22.3-48.8 26.6-107.3 11.6-159.6-26.6-94.1-118.9-157.9-213.8-165.7-26.6-1.8-55.9 0-80.7 8.9-18.5 6.1-31.1 24.8-25.8 44.3 2.7 19.5 23.9 33.6 42.6 26.6z m0 0" fill="#ffffff" /><path d="M690.6 335c2.5-0.8 4.3-0.8 7.1-1.8 8.1-1.8-4.3 0 2.5 0 3.5 0 8.1-0.8 11.6-0.8 14.2 0 30.1 3.5 41.7 14.2 1.8 1.8 3.5 3.5 6.1 5.3 0 0 5.3 6.1 2.5 3.5 1.8 1.8 2.5 4.3 3.5 6.1 1 1.8 1.8 2.5 1.8 4.3-0.8-1.8-0.8-1.8 0 0.8 1.8 4.3 2.5 8.9 3.5 13.4 1.8 7.1 0-4.3 0 1.8v18.7c0 1.8 0 3.5-0.8 4.3 0.8-8.1 0-0.8 0 0-0.8 2.5-0.8 5.3-1.8 8.1-3.5 12.4 4.3 26.6 16.7 29.3 13.4 3.5 25.8-4.3 29.3-16.7 12.4-40 2.5-87-29.3-114.3-28.3-25.8-72.9-34.7-110-24-26.9 9.8-13.5 55.9 15.6 47.8z m0 0" fill="#ffffff" /></svg>