<?xml version="1.0" standalone="no"?><!DOCTYPE svg PUBLIC "-//W3C//DTD SVG 1.1//EN" "http://www.w3.org/Graphics/SVG/1.1/DTD/svg11.dtd"><svg class="icon" width="32px" height="32.00px" viewBox="0 0 1024 1024" version="1.1" xmlns="http://www.w3.org/2000/svg"><path d="M371.226529 119.452367c-187.547442 0-341.167762 127.83631-341.167762 290.156664 0 93.698461 51.116462 170.613985 136.491188 230.204701l-34.122797 102.654378 119.256692-59.831547c42.687363 8.474254 76.915524 17.144184 119.497523 17.144184 10.701945 0 21.32863-0.526819 31.849951-1.369729-6.652967-22.833826-10.521321-46.706237-10.521321-71.481766 0-148.969264 128.001881-269.926827 290.066352-269.926827 11.04814 0 21.990916 0.812806 32.858432 2.016963C685.91789 221.579927 538.980641 119.452367 371.226529 119.452367zM260.398936 349.792536c-25.558231 0-51.372345-17.129132-51.372345-42.702415 0-25.678646 25.814114-42.566947 51.372345-42.566947s42.597051 16.903353 42.597051 42.566947C302.980935 332.663403 285.957167 349.792536 260.398936 349.792536zM499.168203 349.792536c-25.573283 0-51.236877-17.129132-51.236877-42.702415 0-25.678646 25.663595-42.566947 51.236877-42.566947 25.693698 0 42.702415 16.903353 42.702415 42.566947C541.870618 332.663403 524.846849 349.792536 499.168203 349.792536z" fill="#ffffff" /><path d="M993.971337 622.850171c0-136.310564-136.491188-247.484353-289.780365-247.484353-162.320354 0-290.171716 111.173788-290.171716 247.484353 0 136.611604 127.851362 247.559613 290.171716 247.559613 33.972277 0 68.21549-8.549514 102.353339-17.11408l93.593097 51.236877-25.663595-85.269362C942.945187 767.920977 993.971337 699.795799 993.971337 622.850171zM610.10116 580.223016c-16.993665 0-34.137849-16.873249-34.137849-34.107745 0-17.023769 17.144184-34.152901 34.137849-34.152901 25.814114 0 42.702415 17.129132 42.702415 34.152901C652.803575 563.349767 635.915274 580.223016 610.10116 580.223016zM797.769017 580.223016c-16.873249 0-33.897018-16.873249-33.897018-34.107745 0-17.023769 17.023769-34.152901 33.897018-34.152901 25.558231 0 42.702415 17.129132 42.702415 34.152901C840.471432 563.349767 823.327248 580.223016 797.769017 580.223016z" fill="#ffffff" /></svg>