<?xml version="1.0" standalone="no"?><!DOCTYPE svg PUBLIC "-//W3C//DTD SVG 1.1//EN" "http://www.w3.org/Graphics/SVG/1.1/DTD/svg11.dtd"><svg class="icon" width="32px" height="32.00px" viewBox="0 0 1024 1024" version="1.1" xmlns="http://www.w3.org/2000/svg"><path d="M530.6 570.8c-4.6 5.5-9.7 9.7-15.3 12.8-5.6 3.1-11.8 4.7-18.6 4.7-3.7 0-6.9-0.5-9.6-1.4-2.8-1-5.1-2.7-7-5.1-1.9-2.3-3.4-5.5-4.4-9.5s-1.5-9.1-1.5-15.3c0-16.9 2.2-33.8 6.7-50.9 4.5-17 10.7-33 18.7-48.1s17.4-28.7 28.4-40.8c10.9-12.1 22.7-21.7 35.4-28.7l-32.8 182.3z m291-147.7c-4.4 19.7-10.2 38.1-17.3 55.2-7.2 17.2-15.3 32.9-24.5 47.2-9.2 14.2-18.6 26.5-28.4 36.6-9.7 10.1-19.3 18-28.6 23.6-9.4 5.7-17.8 8.6-25.3 8.6-1.8 0-4-0.3-6.5-0.8s-4.8-1.4-7-2.8c-2.2-1.5-4.1-3.5-5.6-6.2-1.6-2.8-2.3-6.3-2.3-10.8 0-5.5 0.9-13.7 2.8-24.5 1.8-10.8 4.9-24.2 9.2-40.3 4.3-16.1 9.9-35 16.8-56.6s15.4-46.2 25.5-73.6c4.6-12.4 7.8-22.9 9.6-31.3 1.8-8.5 2.8-15.6 2.8-21.6 0-5.1-1.6-10.5-4.8-15.9-3.2-5.5-7.7-10.9-13.4-16.2-5.7-5.2-12.4-10.3-20.2-15.1-7.8-4.8-16.4-9-25.7-12.6-9.4-3.6-19.2-6.4-29.5-8.6-10.3-2.2-20.8-3.3-31.7-3.3-2.4 0-5.6 0.2-9.6 0.7s-8.2 1.2-12.5 2.2c-4.3 1-8.3 2.2-12 3.7s-6.5 3.3-8.5 5.2l-6.9 65.6c-2.2-2.4-6.2-4.2-11.8-5.3-5.7-1.1-12.3-1.7-19.8-1.7-14.3 0-28.5 2.4-42.7 7.1-14.1 4.7-27.9 11.2-41.3 19.5s-26.2 18.1-38.5 29.5c-12.3 11.5-23.8 23.8-34.4 37.2-10.6 13.4-20.3 27.6-29 42.4s-16.2 29.9-22.3 45.1c-6.2 15.3-10.9 30.4-14.3 45.5s-5.1 29.5-5.1 43.5c0 20 2.7 38.1 8 54.2 5.3 16 12.6 29.6 21.7 40.7 9.2 11.1 20 19.6 32.6 25.6s26 9 40.3 9c8.8 0 18.3-1.6 28.5-4.9 10.2-3.3 20.5-8.9 30.8-17 10.4-8 20.5-18.7 30.3-32s18.7-30 26.6-50.2c-0.6 4.5-1.1 9.4-1.7 14.8-0.6 5.3-0.8 10.3-0.8 14.7 0 15 1.9 27.4 5.6 37.3 3.8 9.9 9 17.8 15.8 23.8s14.9 10.2 24.4 12.7c9.4 2.5 19.8 3.7 31 3.7 21.7 0 43.4-3.3 65.1-10 21.7-6.6 43-15.8 63.7-27.6s40.7-25.8 59.9-42.1 37.2-34 54-53.2 32.1-39.3 45.8-60.6c13.8-21.3 25.6-43 35.5-65s17.6-44.1 23-66.1 8.1-43.2 8.1-63.6c0-43.1-7.4-81.6-22.2-115.6s-36.3-62.7-64.6-86.3c-28.3-23.5-63-41.6-104.1-54C724.8 70.2 678 64 625.3 64c-36.5 0-72.5 4.1-107.9 12.4s-69.6 20-102.5 35.3c-32.9 15.2-64.4 33.6-94.4 55-30 21.3-57.9 45.1-83.7 71.4-25.8 26.3-49.1 54.5-69.9 84.8-20.8 30.2-38.6 61.8-53.4 94.8-14.8 32.9-26.2 66.8-34.1 101.7-8 34.9-12 70-12 105.4 0 33.6 3.3 65.1 10 94.7 6.7 29.6 16.5 56.8 29.5 81.6 12.9 24.8 28.9 47.1 48 66.8 19.1 19.6 41 36.3 65.8 50 24.8 13.6 52.3 24.1 82.7 31.3 30.4 7.3 63.3 10.9 98.7 10.9 24.6 0 48.8-2.7 72.5-8 23.8-5.4 46.3-12.5 67.4-21.3 21.2-8.9 40.7-19.1 58.6-30.5 17.9-11.5 33.4-23.4 46.4-35.8 13-12.4 23.2-24.7 30.4-37s10.9-23.7 10.9-34.2c0-8.8-3-16.2-8.9-22.3-6-6-14.6-10-26-11.9-17.4 14.1-34.5 26.2-51.1 36.1-16.6 9.9-33 17.9-49.3 24.1-16.2 6.1-32.5 10.6-48.7 13.3s-32.6 4.1-49.1 4.1c-39.5 0-74.7-5.7-105.6-17-30.9-11.4-57-28-78.3-49.8-21.3-21.9-37.5-48.8-48.7-80.9-11.2-32-16.8-68.8-16.8-110.3 0-22.5 2.6-45.6 7.7-69.3 5.1-23.7 12.6-47.2 22.3-70.6s21.6-46.2 35.5-68.7c13.9-22.4 29.8-43.6 47.5-63.4s37.1-38.1 58.2-54.9 43.6-31.2 67.6-43.3c23.9-12.1 49.2-21.6 75.7-28.4 26.5-6.8 54-10.2 82.4-10.2 35.8 0 67.7 4.7 95.7 14s51.6 22.5 70.7 39.4c19.2 16.9 33.8 37.2 43.9 60.8 10.1 23.6 15.1 49.6 15.1 78 0.1 20.9-2.1 41.3-6.5 61z" fill="#ffffff" /></svg>