<?xml version="1.0" standalone="no"?><!DOCTYPE svg PUBLIC "-//W3C//DTD SVG 1.1//EN" "http://www.w3.org/Graphics/SVG/1.1/DTD/svg11.dtd"><svg class="icon" width="48px" height="48.00px" viewBox="0 0 1024 1024" version="1.1" xmlns="http://www.w3.org/2000/svg"><path d="M677 851.25a20 20 0 0 1 0 40H347a20 20 0 0 1 0-40h330m0-20H347a40 40 0 0 0 0 80h330a40 40 0 0 0 0-80z" fill="#d81e06" /><path d="M447 702.25l20 0 0 148-20 0 0-148Z" fill="#d81e06" /><path d="M557 702.25l20 0 0 148-20 0 0-148Z" fill="#d81e06" /><path d="M646 652.25H378a110.12 110.12 0 0 1-110-110v-320a110.12 110.12 0 0 1 110-110h268a110.12 110.12 0 0 1 110 110v320a110.12 110.12 0 0 1-110 110z m-268-520a90.1 90.1 0 0 0-90 90v320a90.1 90.1 0 0 0 90 90h268a90.1 90.1 0 0 0 90-90v-320a90.1 90.1 0 0 0-90-90z" fill="#d81e06" /><path d="M665.5 722.25h-307c-88.22 0-160-71.78-160-160v-196a10 10 0 0 1 20 0v196c0 77.2 62.8 140 140 140h307c77.2 0 140-62.8 140-140v-196a10 10 0 0 1 20 0v196c0 88.22-71.78 160-160 160z" fill="#d81e06" /><path d="M502 112.75l20 0 0 120-20 0 0-120Z" fill="#d81e06" /><path d="M422 112.75l20 0 0 120-20 0 0-120Z" fill="#d81e06" /><path d="M582 112.75l20 0 0 120-20 0 0-120Z" fill="#d81e06" /><path d="M753 332.75l0 20-482 0 0-20 482 0Z" fill="#d81e06" /><path d="M753 272.75l0 20-482 0 0-20 482 0Z" fill="#d81e06" /><path d="M753 392.75l0 20-482 0 0-20 482 0Z" fill="#d81e06" /><path d="M753 452.75l0 20-482 0 0-20 482 0Z" fill="#d81e06" /><path d="M753 512.75l0 20-482 0 0-20 482 0Z" fill="#d81e06" /><path d="M743 572.75l0 20-462 0 0-20 462 0Z" fill="#d81e06" /></svg>