<?xml version="1.0" standalone="no"?><!DOCTYPE svg PUBLIC "-//W3C//DTD SVG 1.1//EN" "http://www.w3.org/Graphics/SVG/1.1/DTD/svg11.dtd"><svg class="icon" width="16px" height="16.00px" viewBox="0 0 1024 1024" version="1.1" xmlns="http://www.w3.org/2000/svg"><path d="M512 0C229.376 0 0 229.376 0 512s229.376 512 512 512 512-229.376 512-512S794.624 0 512 0z m272.896 603.648l-17.92 19.456L512 857.6 257.024 623.104l-17.92-19.456c-70.656-76.288-70.656-199.168 0-275.456 70.656-76.288 184.832-76.288 254.976 0L512 347.648l17.92-19.456c70.656-76.288 184.832-76.288 254.976 0 70.656 76.288 70.656 199.68 0 275.456z" fill="#d81e06" /></svg>