<?xml version="1.0" standalone="no"?><!DOCTYPE svg PUBLIC "-//W3C//DTD SVG 1.1//EN" "http://www.w3.org/Graphics/SVG/1.1/DTD/svg11.dtd"><svg class="icon" width="16px" height="16.00px" viewBox="0 0 1024 1024" version="1.1" xmlns="http://www.w3.org/2000/svg"><path d="M512.1 64c-247.4 0-448 200.6-448 448s200.6 448 448 448 448-200.6 448-448-200.6-448-448-448z m288.5 736.5c-37.5 37.5-81.1 66.9-129.7 87.5-50.3 21.3-103.7 32-158.8 32s-108.5-10.8-158.8-32c-48.6-20.5-92.2-50-129.7-87.5s-66.9-81.1-87.5-129.7c-21.3-50.3-32-103.7-32-158.8s10.8-108.5 32-158.8c20.5-48.6 50-92.2 87.5-129.7s81.1-66.9 129.7-87.5c50.3-21.3 103.7-32 158.8-32s108.5 10.8 158.8 32c48.6 20.5 92.2 50 129.7 87.5s66.9 81.1 87.5 129.7c21.3 50.3 32 103.7 32 158.8s-10.8 108.5-32 158.8c-20.6 48.6-50 92.2-87.5 129.7z" fill="#a8a8a8" /><path d="M672.7 496.7L424.8 343.3c-3-1.9-6.3-2.7-9.4-2.7-9.4 0-18 7.5-18 18v306.9c0 10.5 8.7 18 18 18 3.2 0 6.4-0.9 9.4-2.7l247.9-153.4c11.4-7.1 11.4-23.7 0-30.7zM437.3 626V398l184.1 114-184.1 114z" fill="#a8a8a8" /></svg>