<?xml version="1.0" standalone="no"?><!DOCTYPE svg PUBLIC "-//W3C//DTD SVG 1.1//EN" "http://www.w3.org/Graphics/SVG/1.1/DTD/svg11.dtd"><svg class="icon" width="16px" height="16.00px" viewBox="0 0 1024 1024" version="1.1" xmlns="http://www.w3.org/2000/svg"><path d="M462.611692 1016.398769l-61.912615-26.072615c-158.011077-66.481231-258.481231-161.555692-290.500923-274.983385-14.729846-52.105846-14.808615-107.401846-0.275692-164.312615 14.572308-57.068308 43.953231-115.948308 87.315692-175.025231 24.379077-33.870769 38.4-62.936615 44.189538-91.372308 6.380308-31.192615 2.796308-63.527385-10.909538-98.855384l-22.173539-57.107693 57.816616 22.724924c62.227692 24.457846 102.833231 67.741538 124.652307 134.06523 9.137231-23.04 14.769231-49.230769 16.423385-77.193846 3.268923-54.980923-9.019077-114.806154-34.540308-168.526769L354.146462 0.669538l43.874461 0.984616c4.647385 0.078769 114.884923 3.780923 234.889846 117.366154l0.787693 0.787692a483.997538 483.997538 0 0 1 77.272615 102.793846c16.817231 29.932308 31.192615 62.739692 43.008 98.107077 4.371692-13.587692 7.719385-26.939077 9.137231-39.266461l8.822154-76.918154 41.472 65.772307c29.853538 47.300923 81.92 148.676923 95.113846 220.002462 21.110154 89.166769 22.252308 168.763077 3.426461 236.504615a312.477538 312.477538 0 0 1-93.420307 150.567385c-84.834462 76.445538-201.019077 103.069538-250.604308 114.451692l-96.886154 22.173539 71.798154-67.584c55.453538-52.224 77.508923-111.222154 65.536-175.261539a213.700923 213.700923 0 0 0-34.422154-81.683692l-0.905846-1.181539-0.787692-1.260307c-0.512-0.787692-41.472-67.820308-68.529231-110.158769-32.571077 24.300308-69.710769 56.635077-91.254154 104.88123-14.257231 31.901538-20.48 68.489846-18.550154 108.62277 2.363077 48.600615 16.699077 104.132923 42.692923 165.021538l25.993846 61.006769z m155.766154-358.006154c5.789538 7.876923 33.240615 47.458462 43.638154 103.069539a224.098462 224.098462 0 0 1-27.332923 156.750769c47.261538-15.753846 102.793846-40.487385 146.904615-80.344615a259.859692 259.859692 0 0 0 77.705846-125.164308c16.502154-59.234462 15.123692-130.205538-4.056615-210.944l-0.275692-1.378462c-7.483077-41.117538-31.547077-97.634462-55.571693-144.502153-5.553231 15.123692-11.618462 29.696-17.132307 42.92923-2.835692 6.695385-5.474462 13.075692-7.876923 19.02277l-33.910154 84.676923-18.195692-89.206154c-28.750769-141.272615-86.528-213.819077-127.606154-256.078769-30.562462-28.829538-79.635692-67.544615-140.8-89.009231a299.874462 299.874462 0 0 0-12.721231-4.135385 389.907692 389.907692 0 0 1 20.558769 147.298462c-3.859692 64.984615-26.112 122.958769-62.739692 163.249231L359.187692 418.461538l-7.561846-58.28923c-7.601231-58.289231-24.339692-98.894769-53.563077-126.739693 2.087385 20.873846 1.063385 41.353846-3.072 61.715693-7.364923 36.036923-24.260923 71.601231-53.208615 111.852307l-0.157539 0.236308c-39.384615 53.563077-65.851077 106.338462-78.76923 156.829539-12.209231 47.812923-12.209231 93.892923-0.039385 136.940307 23.394462 82.904615 92.081231 155.451077 199.955692 212.164923-13.666462-42.850462-21.504-83.101538-23.276307-120.280615-2.363077-48.443077 5.395692-93.065846 23.079384-132.647385 32.137846-72.034462 90.742154-113.821538 129.496616-141.469538l25.836307-18.432 15.753846 23.197538c22.016 32.374154 77.745231 123.352615 84.755693 134.852923z" fill="#6d6d6d" /></svg>