<?xml version="1.0" standalone="no"?><!DOCTYPE svg PUBLIC "-//W3C//DTD SVG 1.1//EN" "http://www.w3.org/Graphics/SVG/1.1/DTD/svg11.dtd"><svg class="icon" width="16px" height="16.00px" viewBox="0 0 1024 1024" version="1.1" xmlns="http://www.w3.org/2000/svg"><path d="M512 1024C229.23 1024 0 794.77 0 512S229.23 0 512 0s512 229.23 512 512-229.23 512-512 512z m0-950.894c-242.395 0-438.857 196.499-438.857 438.857 0 242.396 196.462 438.858 438.857 438.858 242.359 0 438.857-196.462 438.857-438.858C950.857 269.605 754.36 73.106 512 73.106zM475.429 731.43h73.142v73.106H475.43v-73.106z m54.857-73.143h-36.572c-10.093 0-18.285-8.192-18.285-18.286V237.678c0-10.094 8.192-18.286 18.285-18.286h36.572c10.093 0 18.285 8.192 18.285 18.286V640c0 10.094-8.192 18.286-18.285 18.286z" /></svg>