<?xml version="1.0" standalone="no"?><!DOCTYPE svg PUBLIC "-//W3C//DTD SVG 1.1//EN" "http://www.w3.org/Graphics/SVG/1.1/DTD/svg11.dtd"><svg class="icon" width="16px" height="16.00px" viewBox="0 0 1024 1024" version="1.1" xmlns="http://www.w3.org/2000/svg"><path d="M273.06398844 563.95344594c-4.09794469 37.98905344 10.22640188 77.9717025 36.77074594 107.94945843 38.80125938 41.97624281 77.60251781 69.960405 147.04606499 73.94759438h10.22640282c75.57200438 0 155.20503563-41.97624281 198.10423875-103.92535125 10.22640188-15.98567531 26.54434406-39.98264813 32.67280125-63.97962094l38.80125937-265.84953843c46.96023 10.00489125 130.691205 35.99545875 181.74937875 105.918945a29.75624625 29.75624625 0 0 0 28.57485656 11.99848687c10.22640188 0 20.41588594-8.0112975 26.54434407-17.97927 34.70331469-67.96681031 20.41588594-221.87970094-44.92971657-289.84651219C853.05236 42.22234156 755.03395531 32.25436812 750.93601156 32.25436812c-16.35486-1.99359469-32.67280125 10.00489125-34.70331468 25.99056751l-18.38537344 107.94945843c-2.03051344 15.98567531 8.15897063 31.97135156 26.54434406 35.99545875 16.35486 1.99359469 42.89920312-10.00489125 46.96023-25.9905675l14.28742781-61.9491075c28.57485656 8.0112975 61.28457656 25.9905675 98.01840375 65.97321563 32.67280125 35.99545875 42.89920312 91.96378312 40.83177188 145.90159406-89.85943312-75.94118906-208.33064156-89.93326969-214.45909875-89.93326969-16.35486-1.99359469-32.67280125 10.00489125-34.70331469 25.99056657l-24.51382969 217.85559374c-2.03051344-1.99359469-2.03051344-3.98718938-4.09794468-3.98718937-38.80125938-37.98905344-95.98789031-61.9491075-157.27246782-63.97962094-122.42147906-12.03540469-206.152455 57.92500031-216.37885687 151.88237813z m353.34619406-39.98264813l-8.15897156 41.97624281c-2.03051344 10.00489125 4.09794469 25.9905675-6.12845719 41.97624282-32.67280125 47.95702687-100.085835 67.96681031-149.07657844 65.97321562-44.92971656-1.99359469-65.3456025-19.97286469-89.85943312-47.95702687-10.26332063-12.03540469-22.52023594-32.00826937-20.45280375-56.00524219 4.09794469-49.98754031 46.96023-89.93326969 120.50172094-89.93326969h12.25691531c40.83177188 1.99359469 79.63303125 17.97927 104.14686187 41.97624281 10.18948406 9.96797344 26.54434406 9.96797344 36.77074594 1.99359469z m328.79544375-10.00489219c-44.92971656-3.98718938-46.96023 53.97472969-46.96022906 55.96832438-20.41588594 219.88610625-200.13475219 361.80051094-424.78333594 339.79713281-224.68550156-19.97286469-390.11693906-215.86199906-367.63362094-435.74810531 20.41588594-219.88610625 200.13475219-361.80051094 424.783335-339.79713375 22.48331719 1.99359469 63.31508906-10.00489125 63.31508906-31.97135062 2.03051344-35.99545875-26.54434406-43.9698375-57.18663187-47.95702688C279.19244656 30.26077344 60.67232094 202.152935 34.12797781 466.00887875c-24.51383063 263.85594469 171.55989562 497.69721375 441.138195 523.68778125 269.57829937 23.99697281 488.09842406-147.89518875 514.64276813-411.75113344 4.09794469-41.97624281-6.12845719-61.98602625-34.70331469-63.97962094z" fill="#ffffff" /></svg>