<?xml version="1.0" standalone="no"?><!DOCTYPE svg PUBLIC "-//W3C//DTD SVG 1.1//EN" "http://www.w3.org/Graphics/SVG/1.1/DTD/svg11.dtd"><svg class="icon" width="16px" height="16.00px" viewBox="0 0 1024 1024" version="1.1" xmlns="http://www.w3.org/2000/svg"><path d="M934.4 368c-22.4-25.6-54.4-38.4-89.6-38.4h-310.4v-128c0-76.8-67.2-137.6-147.2-137.6h-51.2c-19.2 0-32 12.8-32 32v51.2c3.2 89.6 3.2 166.4-41.6 169.6-9.6 0-32 3.2-41.6 6.4H96c-19.2 0-32 12.8-32 32v576c0 19.2 12.8 32 32 32h656c57.6 0 105.6-44.8 112-102.4 6.4-54.4 25.6-124.8 44.8-198.4 22.4-76.8 44.8-160 51.2-220.8 3.2-25.6-6.4-51.2-25.6-73.6zM192 896H128V384h64v512z m656-252.8c-19.2 73.6-41.6 147.2-48 204.8-3.2 22.4-19.2 48-51.2 48H256V380.8h9.6c112-6.4 105.6-144 102.4-236.8V128h19.2c44.8 0 83.2 32 83.2 73.6v160c0 19.2 12.8 32 32 32h342.4c16 0 32 6.4 41.6 16 3.2 3.2 9.6 12.8 9.6 22.4-6.4 57.6-28.8 134.4-48 211.2z" fill="#ffffff" /></svg>