<?xml version="1.0" standalone="no"?><!DOCTYPE svg PUBLIC "-//W3C//DTD SVG 1.1//EN" "http://www.w3.org/Graphics/SVG/1.1/DTD/svg11.dtd"><svg class="icon" width="48px" height="48.00px" viewBox="0 0 1024 1024" version="1.1" xmlns="http://www.w3.org/2000/svg"><path d="M510.9 60.7c-245.6 0-446.7 199.8-446.7 446.7C64.2 753 263.9 954 510.8 954s446.6-199.7 446.6-446.6c0.1-245.6-199.6-446.7-446.5-446.7z m0 827.2c-209.2 0-380.5-171.4-380.5-380.5 0-209.2 171.4-379.2 380.5-379.2 209.2 0 379.2 170 379.2 379.2C890 716.5 720 887.9 510.9 887.9z" fill="#ffffff" /><path d="M691.9 498.1l-272-157c-10.7-6.2-24 1.5-24 13.9v314.2c0 12.3 13.3 20 24 13.9L692 526c10.6-6.3 10.6-21.7-0.1-27.9z" fill="#ffffff" /></svg>