<?xml version="1.0" standalone="no"?><!DOCTYPE svg PUBLIC "-//W3C//DTD SVG 1.1//EN" "http://www.w3.org/Graphics/SVG/1.1/DTD/svg11.dtd"><svg class="icon" width="16px" height="16.00px" viewBox="0 0 1024 1024" version="1.1" xmlns="http://www.w3.org/2000/svg"><path d="M185.157818 772.817455l47.755637-30.324364 21.713454-13.777455 11.403636-7.261091h562.106182C872.308364 721.454545 907.636364 686.941091 907.636364 644.887273V286.068364C907.636364 244.014545 872.261818 209.454545 828.136727 209.454545H219.159273C175.010909 209.454545 139.636364 244.014545 139.636364 286.068364v515.630545l45.498181-28.881454zM219.136 162.909091h609.000727C897.745455 162.909091 954.181818 218.065455 954.181818 286.091636V644.887273c0 68.002909-56.436364 123.112727-126.045091 123.112727H279.575273l-138.938182 88.203636a31.906909 31.906909 0 0 1-42.775273-8.192c-5.352727-7.470545-4.747636-16.593455-4.747636-24.692363V286.068364C93.090909 218.065455 149.550545 162.909091 219.159273 162.909091z"  /><path d="M302.545455 558.545455a23.272727 23.272727 0 0 1 23.272727-23.272728h232.727273a23.272727 23.272727 0 0 1 0 46.545455H325.818182a23.272727 23.272727 0 0 1-23.272727-23.272727z m0-162.909091a23.272727 23.272727 0 0 1 23.272727-23.272728h395.636363a23.272727 23.272727 0 0 1 0 46.545455H325.818182a23.272727 23.272727 0 0 1-23.272727-23.272727z"  /></svg>