<?xml version="1.0" standalone="no"?><!DOCTYPE svg PUBLIC "-//W3C//DTD SVG 1.1//EN" "http://www.w3.org/Graphics/SVG/1.1/DTD/svg11.dtd"><svg class="icon" width="16px" height="16.00px" viewBox="0 0 1024 1024" version="1.1" xmlns="http://www.w3.org/2000/svg"><path d="M610.742857 565.394286l231.862857 232.045714v-178.834286a32 32 0 0 1 64 0v234.788572a53.211429 53.211429 0 0 1-53.211428 53.211428H618.605714a32 32 0 0 1 0-64h178.834286L565.394286 610.742857a32 32 0 1 1 45.348571-45.348571zM405.394286 117.394286a32 32 0 0 1 0 64h-178.834286l232.228571 232.228571a32 32 0 0 1-45.165714 45.165714l-232.228571-232.228571v178.834286a32 32 0 0 1-64 0V170.605714a53.211429 53.211429 0 0 1 53.211428-53.211428z" fill="#ffffff" /></svg>