<?xml version="1.0" standalone="no"?><!DOCTYPE svg PUBLIC "-//W3C//DTD SVG 1.1//EN" "http://www.w3.org/Graphics/SVG/1.1/DTD/svg11.dtd"><svg class="icon" width="32px" height="32.00px" viewBox="0 0 1024 1024" version="1.1" xmlns="http://www.w3.org/2000/svg"><path d="M754.4 764.6h-41.6c-11 0-20-9-20-20s9-20 20-20h19.4v-0.2l21.2 0.2h0.9c121.2 0 219.8-98.6 219.8-219.8S875.5 285 754.3 285h-1.7l-15.3 0.1-4.1-14.7C704.2 166.5 608.5 94 500.5 94c-123.4 0-226.7 92.4-240.2 214.8l-1.9 17.3-17.4 0.5c-108.1 3.4-192.7 90.8-192.7 199 0 108.8 89 198.1 198.4 199h65.5c11 0 20 9 20 20s-9 20-20 20h-66.7c-63.2-0.7-122.5-25.8-167.3-70.6C33.1 648.8 8.3 589 8.3 525.6c0-62.5 24-121.7 67.6-166.5 39.5-40.7 91.2-65.6 147.1-71.3 10.7-62 41.9-118.8 89.1-161.4C363.8 79.7 430.8 54 500.5 54c62.7 0 122 20.2 171.6 58.3 44 33.9 77.4 80.6 95.2 132.9 64.5 3.1 124.8 29.8 170.8 75.8 49.1 49.1 76.1 114.3 76.1 183.7s-27 134.7-76.1 183.7C893.3 733.3 835 759.7 772.3 764v0.6h-17.9z" fill="#ffffff" /><path d="M491.3 464.2h40v360h-40z" fill="#ffffff" /><path d="M497.2 421.9l-99 99c-7.8 7.8-7.8 20.5 0 28.3 7.8 7.8 20.5 7.8 28.3 0l99-99c7.8-7.8 7.8-20.5 0-28.3-7.9-7.9-20.5-7.9-28.3 0z" fill="#ffffff" /><path d="M596.1 549.1l-99-99c-7.8-7.8-7.8-20.5 0-28.3 7.8-7.8 20.5-7.8 28.3 0l99 99c7.8 7.8 7.8 20.5 0 28.3-7.8 7.8-20.5 7.8-28.3 0z" fill="#ffffff" /></svg>