<?xml version="1.0" standalone="no"?><!DOCTYPE svg PUBLIC "-//W3C//DTD SVG 1.1//EN" "http://www.w3.org/Graphics/SVG/1.1/DTD/svg11.dtd"><svg class="icon" width="32px" height="32.00px" viewBox="0 0 1024 1024" version="1.1" xmlns="http://www.w3.org/2000/svg"><path d="M178.4576 265.25696c32.768 0 59.904 26.624 59.904 59.904v501.248c0 32.768-26.624 59.904-59.904 59.904-32.768 0-59.904-26.624-59.904-59.904v-501.248c0-33.28 26.624-59.904 59.904-59.904zM512.7936 361.00096c32.768 0 59.904 26.624 59.904 59.904v406.016c0 32.768-26.624 59.904-59.904 59.904-32.768 0-59.904-26.624-59.904-59.904v-406.528c0-32.768 26.624-59.392 59.904-59.392zM847.1296 74.28096c32.768 0 59.904 26.624 59.904 59.904v692.736c0 32.768-26.624 59.904-59.904 59.904-32.768 0-59.904-26.624-59.904-59.904v-692.736c0-33.28 26.624-59.904 59.904-59.904z" fill="#ffffff" /></svg>