<?xml version="1.0" standalone="no"?><!DOCTYPE svg PUBLIC "-//W3C//DTD SVG 1.1//EN" "http://www.w3.org/Graphics/SVG/1.1/DTD/svg11.dtd"><svg class="icon" width="16px" height="16.00px" viewBox="0 0 1024 1024" version="1.1" xmlns="http://www.w3.org/2000/svg"><path d="M685.558446 890.98617c1.511521-58.543781-1.032258-86.525349-85.419358-266.506922-37.714287-80.405533-70.414749-156.387102-88.036869-191.705076a15.594471 15.594471 0 0 1 11.502304-23.115208c40.552997-4.202765 120.000004-17.73272 137.437793-59.576039a2.064516 2.064516 0 0 0-1.732719-2.728111l-229.714294-13.198157a15.520738 15.520738 0 0 0-15.705069 19.539171l101.271893 395.870982c-3.686636-0.258065-7.041475-0.589862-10.617512-0.663594-101.972354-2.543779-186.211988 56.958527-188.01844 132.718899s79.078344 139.576042 181.013831 142.082954c99.207377 2.470046 181.419361-53.824887 187.61291-126.820281a55.778804 55.778804 0 0 0 0.40553-5.898618z" fill="#ffffff" /><path d="M189.226631 893.82488a36.866361 36.866361 0 0 1-25.142858-9.880185c-205.972358-191.705076-217.511529-515.354857-25.806453-721.327214A510.392645 510.392645 0 1 1 885.410988 858.175109a36.870047 36.870047 0 1 1-53.972352-50.248849 436.645177 436.645177 0 1 0-617.106013 22.119816 36.866361 36.866361 0 0 1-25.105992 63.852537z" fill="#ffffff" /><path d="M289.576865 785.990775a36.645163 36.645163 0 0 1-25.105992-9.880185 363.059921 363.059921 0 1 1 513.142876-18.43318 36.870047 36.870047 0 1 1-53.972352-50.24885 289.327199 289.327199 0 1 0-408.921674 14.746544 36.866361 36.866361 0 0 1-25.142858 63.815671z" fill="#ffffff" /></svg>