<?xml version="1.0" standalone="no"?><!DOCTYPE svg PUBLIC "-//W3C//DTD SVG 1.1//EN" "http://www.w3.org/Graphics/SVG/1.1/DTD/svg11.dtd"><svg class="icon" width="16px" height="16.00px" viewBox="0 0 1024 1024" version="1.1" xmlns="http://www.w3.org/2000/svg"><path d="M570.848 71.5392a25.6 25.6 0 0 1-9.9584 34.8032L310.6304 245.2608c-53.0752 26.368-117.7664 46.9888-194.0672 61.8624h82.6112l-0.1408 0.0704L921.6 307.2a38.4 38.4 0 0 1 38.4 38.4v576a38.4 38.4 0 0 1-38.4 38.4H102.4a38.4 38.4 0 0 1-38.4-38.4V345.6c0-8.7296 2.912-16.7808 7.8208-23.232 1.4592-2.1504 3.2704-4.1024 5.3952-5.76a38.3552 38.3552 0 0 1 12.352-7.2128L536.032 61.5808a25.6 25.6 0 0 1 34.816 9.9584zM390.4 448c-106.0416 0-192 85.9584-192 192 0 106.0416 85.9584 192 192 192 106.0416 0 192-85.9584 192-192 0-106.0416-85.9584-192-192-192z m416-51.2a44.8 44.8 0 1 0 0 89.6 44.8 44.8 0 0 0 0-89.6z" fill="#ffffff" /></svg>