<?xml version="1.0" standalone="no"?><!DOCTYPE svg PUBLIC "-//W3C//DTD SVG 1.1//EN" "http://www.w3.org/Graphics/SVG/1.1/DTD/svg11.dtd"><svg class="icon" width="16px" height="16.00px" viewBox="0 0 1024 1024" version="1.1" xmlns="http://www.w3.org/2000/svg"><path d="M796.2 64.2H228c-55.2 0-100 44.8-100 100v695.3c0 55.2 44.8 100 100 100h568.1c55.2 0 100-44.8 100-100V164.2c0.1-55.2-44.7-100-99.9-100zM265.4 265.3c5.8-5.8 13.8-9.4 22.6-9.4h320c17.7 0 32 14.3 32 32 0 8.9-3.6 16.9-9.4 22.7-5.8 5.8-13.8 9.4-22.6 9.4H288c-17.7 0-32-14.3-32-32 0-8.9 3.6-16.9 9.4-22.7z m0 192c5.8-5.8 13.8-9.4 22.6-9.4h320c17.7 0 32 14.3 32 32 0 8.8-3.6 16.8-9.4 22.6-5.8 5.8-13.8 9.4-22.6 9.4H288c-17.7 0-32-14.3-32-32 0-8.8 3.6-16.8 9.4-22.6z m173.3 237.3c-5.8 5.8-13.8 9.4-22.6 9.4h-128c-17.7 0-32-14.3-32-32 0-8.8 3.6-16.8 9.4-22.6s13.8-9.4 22.6-9.4h128c17.7 0 32 14.3 32 32 0 8.8-3.6 16.8-9.4 22.6zM866 481c-17.2 20.6-47.2 31.8-78.9 26.9-20-3.1-37.3-12-50-24.5l-42.8 276.7c-0.4 2.6-1.3 5.1-2.6 7.3 0.3 4.2 0.2 8.5-0.5 12.8-6.5 42-59.1 68.7-117.6 59.6-58.4-9.1-100.5-50.4-94-92.4 6.5-42 59.1-68.7 117.6-59.6 24.8 3.9 46.7 13.5 63.2 26.6L706.9 414c1.6-10.2 10.4-17.4 20.4-17.2 0.9 0 1.8 0.1 2.7 0.2 3 0.5 5.7 1.6 8.1 3.1 1.1 10.3 3.8 20.3 8 29.5 5.1 14.2 15.2 27 28.7 36.4 11.1 7.8 24.6 13.4 39.4 15.7 21.3 3.3 41.8-0.7 58.1-9.8-1.8 3.4-3.9 6.3-6.3 9.1z" fill="#ffffff" /></svg>