<?xml version="1.0" standalone="no"?><!DOCTYPE svg PUBLIC "-//W3C//DTD SVG 1.1//EN" "http://www.w3.org/Graphics/SVG/1.1/DTD/svg11.dtd"><svg class="icon" width="16px" height="16.00px" viewBox="0 0 1024 1024" version="1.1" xmlns="http://www.w3.org/2000/svg"><path d="M489 956.4c-59.7 0-117.7-11.7-172.3-34.8-52.7-22.3-100-54.2-140.7-94.9-40.6-40.6-72.6-88-94.9-140.7C58 631.5 46.3 573.5 46.3 513.8c0-59.7 11.7-117.7 34.8-172.3 22.3-52.7 54.2-100 94.9-140.7 40.6-40.6 88-72.6 140.7-94.9 54.5-23 112.5-34.7 172.3-34.7S606.7 82.9 661.3 106c52.7 22.3 100 54.2 140.7 94.9 40.6 40.6 72.6 88 94.9 140.7 23.1 54.6 34.8 112.5 34.8 172.3 0 8.3-6.7 15-15 15s-15-6.7-15-15c0-227.5-185.1-412.6-412.6-412.6-227.5 0-412.6 185.1-412.6 412.6S261.4 926.4 489 926.4c15 0 43.6-0.8 48.5-1l247.6-31.9c1.5-0.2 3-0.2 4.4 0.1l166.7 28.1L899.8 719c-0.4-1.3-0.5-2.7-0.5-4v-27.8c0-8.3 6.7-15 15-15s15 6.7 15 15V713l62.2 223.4c1.4 4.9 0.1 10.2-3.3 14.1-3.4 3.8-8.6 5.6-13.6 4.8l-187.8-31.6-246.1 31.7c-0.5 0.1-1 0.1-1.5 0.1-1.4-0.1-33.4 0.9-50.2 0.9z" fill="#ffffff" /><path d="M914.2 610c-8.3 0-15-6.7-15-15v-30.2c0-8.3 6.7-15 15-15s15 6.7 15 15V595c0 8.3-6.7 15-15 15z" fill="#ffffff" /><path d="M263.6 522.4m-39.5 0a39.5 39.5 0 1 0 79 0 39.5 39.5 0 1 0-79 0Z" fill="#ffffff" /><path d="M484.1 522.4m-39.5 0a39.5 39.5 0 1 0 79 0 39.5 39.5 0 1 0-79 0Z" fill="#ffffff" /><path d="M704.6 522.4m-39.5 0a39.5 39.5 0 1 0 79 0 39.5 39.5 0 1 0-79 0Z" fill="#ffffff" /></svg>