<?xml version="1.0" standalone="no"?><!DOCTYPE svg PUBLIC "-//W3C//DTD SVG 1.1//EN" "http://www.w3.org/Graphics/SVG/1.1/DTD/svg11.dtd"><svg class="icon" width="16px" height="16.00px" viewBox="0 0 1024 1024" version="1.1" xmlns="http://www.w3.org/2000/svg"><path d="M199.763 374.983q34.592 0 50.773 21.203t16.181 46.868v487.647H56.929V447.517q0-34.591 21.76-53.563t47.425-18.97h73.648z m348.16-274.51q30.129 0 47.985 18.412t17.856 44.078v767.738H405.09V165.197q0-16.74 6.696-29.013t16.74-20.086 22.317-11.717 22.317-3.905h74.765z m347.045 483.185q10.043 0 21.76 5.579t22.317 15.623 17.856 22.877 7.252 27.338V930.7H755.479V657.305q0-12.273 5.022-25.667t13.948-23.991 21.203-17.296 26.782-6.696h72.532z" fill="#ffffff" /></svg>