<?xml version="1.0" standalone="no"?><!DOCTYPE svg PUBLIC "-//W3C//DTD SVG 1.1//EN" "http://www.w3.org/Graphics/SVG/1.1/DTD/svg11.dtd"><svg class="icon" width="16px" height="14.67px" viewBox="0 0 1117 1024" version="1.1" xmlns="http://www.w3.org/2000/svg"><path d="M743.609914 187.449319H402.79297V94.499244h340.816944zM214.41415 180.63298H128.590247a43.996369 43.996369 0 0 0-42.757035 45.545537v666.142209a44.306203 44.306203 0 0 0 43.066869 45.545537h857.619364a44.306203 44.306203 0 0 0 43.066869-45.545537V226.178517a44.306203 44.306203 0 0 0-43.376702-45.545537H898.526707V94.499244h87.373071A130.130106 130.130106 0 0 1 1115.410217 226.178517v666.142209A130.130106 130.130106 0 0 1 986.519445 1024H128.900081A130.439939 130.439939 0 0 1 0.009309 892.320726V226.178517A130.130106 130.130106 0 0 1 128.590247 94.499244h85.823903zM867.543348 46.475038a46.475038 46.475038 0 0 0-92.950075 0v188.998487a46.475038 46.475038 0 0 0 92.950075 0z m-526.717095 0a46.475038 46.475038 0 0 0-92.950076 0v188.998487a46.475038 46.475038 0 0 0 92.950076 0zM867.543348 450.807867a44.616036 44.616036 0 0 0-42.447201-46.475038H321.306737a46.784871 46.784871 0 0 0 0 92.950076h503.78941A44.306203 44.306203 0 0 0 867.543348 450.807867z m0 216.88351a44.616036 44.616036 0 0 0-42.447201-46.475038H321.306737a46.784871 46.784871 0 0 0 0 92.950076h503.78941A44.306203 44.306203 0 0 0 867.543348 667.691377z" fill="#ffffff" /></svg>