<?xml version="1.0" standalone="no"?><!DOCTYPE svg PUBLIC "-//W3C//DTD SVG 1.1//EN" "http://www.w3.org/Graphics/SVG/1.1/DTD/svg11.dtd"><svg class="icon" width="16px" height="16.00px" viewBox="0 0 1024 1024" version="1.1" xmlns="http://www.w3.org/2000/svg"><path d="M743.40768 96l4.848 0.208c14.224 0.8 49.872 4.816 89.36 24.304l6.112 3.136c44.384 23.568 99.072 71.168 120.896 166.016 30.192 131.056 60.256 311.968 59.36 420.752-0.416 55.888-13.168 101.6-37.904 135.824-21.504 29.776-63.408 65.36-140.8 65.68l-0.848 0.032c-55.584 0-102.08-22.432-134.512-64.944-26.928-35.264-36.976-75.296-40.576-96.08l-1.04-6.608c-3.376-24.352-15.408-40.208-37.856-49.872a107.088 107.088 0 0 0-35.552-8.112H429.34368c-12.96 0.64-25.68 3.648-37.504 8.88-20.16 9.216-31.504 23.648-35.488 45.264l-1.664 10.496c-3.6 20.784-13.664 60.8-40.576 96.08-31.328 41.024-75.76 63.36-128.8 64.864L178.73568 912c-77.392-0.32-119.28-35.904-140.8-65.68C13.18368 812.048 0.43168 766.336 0.01568 710.4-0.78432 601.6 29.24768 420.688 59.39168 289.664c22.848-99.312 81.68-146.816 127.024-169.152C231.74368 98.144 272.01568 96.16 280.60768 96h462.8zM281.77568 160c-16.576 0.304-41.216 5.152-67.088 17.92-44.48 21.92-77.92 60.896-92.928 126.08l-4.416 19.6C86.01568 464.72 63.35968 621.36 64.01568 709.952c0.32 43.44 9.488 76.32 25.76 98.88 16.736 23.152 42.24 37.824 83.872 39.088l5.92 0.08c35.84 0 63.456-13.328 83.648-39.776 15.312-20.048 24.4-44.896 28.288-67.504l0.8-5.168c6.32-45.296 31.52-79.616 73.6-98.864a169.28 169.28 0 0 1 53.408-13.792l6.928-0.48 3.088-0.08H594.89568l3.408 0.096c19.536 1.04 38.752 5.424 57.456 13.232 41.552 17.904 67.632 50.976 75.2 95.072l0.736 4.752c3.328 23.936 12.608 51.088 29.104 72.688 19.264 25.264 45.28 38.544 78.784 39.696l4.032 0.064 1.408-0.016c43.184-0.176 69.696-13.968 87.136-36.448l2.048-2.72c16.288-22.544 25.456-55.376 25.792-98.848 0.752-92.64-24.112-259.936-57.744-405.888-14.992-65.152-48.416-104.128-92.96-126.112-24.224-11.952-47.392-16.96-62.896-17.776L743.40768 160H281.77568zM320.01568 272a128 128 0 1 1 0 256 128 128 0 0 1 0-256z m416 176v80h-64v-80h64z m-416-112a64 64 0 1 0 0 128 64 64 0 0 0 0-128z m336 32v64h-80v-64h80z m176 0v64h-80v-64h80z m-96-96v80h-64v-80h64z" fill="#ffffff" /></svg>