<?xml version="1.0" standalone="no"?><!DOCTYPE svg PUBLIC "-//W3C//DTD SVG 1.1//EN" "http://www.w3.org/Graphics/SVG/1.1/DTD/svg11.dtd"><svg class="icon" width="16px" height="16.00px" viewBox="0 0 1024 1024" version="1.1" xmlns="http://www.w3.org/2000/svg"><path d="M524.345 227.556L601.4 99.157a28.444 28.444 0 1 1 48.754 29.27l-59.45 99.129h148.85a56.889 56.889 0 0 1 56.89 56.888v150.67l129.877-62.52a28.444 28.444 0 0 1 40.79 25.628v312.89a28.444 28.444 0 0 1-40.79 25.656l-129.878-62.52v179.085a56.889 56.889 0 0 1-56.888 56.89H113.778a56.889 56.889 0 0 1-56.89-56.89V284.444a56.889 56.889 0 0 1 56.89-56.888h148.878l-59.477-99.13a28.444 28.444 0 0 1 48.753-29.297l77.085 128.427h195.328z m16.555 56.888a28.444 28.444 0 0 1-0.968 0H313.401a28.444 28.444 0 0 1-0.967 0H113.778v568.89h625.778v-568.89H540.9zM796.444 498.49v112.384l111.787 53.817V444.672l-111.787 53.817z m-455.11 164.523V446.293a28.444 28.444 0 0 1 42.154-24.917l196.978 108.345a28.444 28.444 0 0 1 0 49.835L383.488 687.929a28.444 28.444 0 0 1-42.155-24.946z m56.803-170.582v124.473l113.152-62.236-113.152-62.237z" fill="#ffffff" /></svg>