<?xml version="1.0" standalone="no"?><!DOCTYPE svg PUBLIC "-//W3C//DTD SVG 1.1//EN" "http://www.w3.org/Graphics/SVG/1.1/DTD/svg11.dtd"><svg class="icon" width="16px" height="16.00px" viewBox="0 0 1024 1024" version="1.1" xmlns="http://www.w3.org/2000/svg"><path d="M512.073143 0a512 512 0 1 0 512 512 512 512 0 0 0-512-512zM482.011429 891.684571a350.061714 350.061714 0 0 1-349.696-349.622857 48.420571 48.420571 0 0 1 96.841142 0 253.001143 253.001143 0 0 0 252.708572 252.781715 48.420571 48.420571 0 0 1 0 96.841142z m30.061714-259.218285a120.466286 120.466286 0 0 1 0-240.932572 120.466286 120.466286 0 0 1 0 240.932572z m331.264-102.4a48.347429 48.347429 0 0 1-48.274286-48.420572 253.074286 253.074286 0 0 0-252.781714-252.781714 48.420571 48.420571 0 1 1 0-96.768 349.988571 349.988571 0 0 1 349.622857 349.549714 48.493714 48.493714 0 0 1-48.64 48.64z" fill="#ffffff" /></svg>